<?xml version="1.0" encoding="utf-8"?>
<!-- Generator: Adobe Illustrator 26.4.1, SVG Export Plug-In . SVG Version: 6.00 Build 0)  -->
<svg version="1.1" baseProfile="basic" id="Layer_1"
	 xmlns="http://www.w3.org/2000/svg" xmlns:xlink="http://www.w3.org/1999/xlink" x="0px" y="0px" width="227.33px"
	 height="191.11px" viewBox="0 0 227.33 191.11" xml:space="preserve">
<rect fill="#DEEBF7" width="227.33" height="191.11"/>
<polygon fill="none" stroke="#000000" stroke-miterlimit="10" points="2.89,89.1 223.78,89.1 189.5,54.81 37.17,54.81 "/>
<polygon fill="#FFFFFF" points="2.89,89.1 223.78,89.1 189.5,54.81 37.17,54.81 "/>
<text transform="matrix(1 0 0 1 86.437 75.1157)" font-family="'Arial'" font-size="12px">[i=0:N / 2]</text>
<circle fill="none" stroke="#000000" stroke-width="0.4" stroke-miterlimit="10" cx="103.34" cy="54.81" r="5"/>
<circle opacity="0.46" fill="#C1DFE6" cx="103.34" cy="54.81" r="5"/>
<circle fill="none" stroke="#000000" stroke-width="0.4" stroke-miterlimit="10" cx="123.34" cy="54.81" r="5"/>
<circle opacity="0.46" fill="#C1DFE6" cx="123.34" cy="54.81" r="5"/>
<circle fill="none" stroke="#000000" stroke-width="0.4" stroke-miterlimit="10" cx="103.34" cy="89.1" r="5"/>
<circle opacity="0.46" fill="#C1DFE6" cx="103.34" cy="89.1" r="5"/>
<circle fill="none" stroke="#000000" stroke-width="0.4" stroke-miterlimit="10" cx="123.34" cy="89.1" r="5"/>
<circle opacity="0.46" fill="#C1DFE6" cx="123.34" cy="89.1" r="5"/>
<polygon fill="none" stroke="#000000" stroke-miterlimit="10" points="2.89,183.38 223.78,183.38 189.5,217.67 37.17,217.67 "/>
<polygon fill="#FFFFFF" points="2.89,183.38 223.78,183.38 189.5,217.67 37.17,217.67 "/>
<circle fill="none" stroke="#000000" stroke-width="0.4" stroke-miterlimit="10" cx="113.34" cy="183.38" r="5"/>
<circle opacity="0.46" fill="#C1DFE6" cx="113.34" cy="183.38" r="5"/>
<ellipse fill="none" stroke="#000000" stroke-width="3" stroke-miterlimit="10" cx="75" cy="14.81" rx="13.33" ry="10"/>
<ellipse fill="#FFFFFF" cx="75" cy="14.81" rx="13.33" ry="10"/>
<text transform="matrix(1 0 0 1 71.6657 18.8644)" font-family="'Arial'" font-size="10px">A</text>
<ellipse fill="none" stroke="#000000" stroke-width="3" stroke-miterlimit="10" cx="151.67" cy="14.81" rx="13.33" ry="10"/>
<ellipse fill="#FFFFFF" cx="151.67" cy="14.81" rx="13.33" ry="10"/>
<text transform="matrix(1 0 0 1 148.3352 18.8644)" font-family="'Arial'" font-size="10px">B</text>
<polygon fill="none" stroke="#000000" stroke-miterlimit="10" points="36.13,130.52 47.55,119.1 177.89,119.1 189.32,130.52 
	189.32,141.95 177.89,153.38 47.55,153.38 36.13,141.95 "/>
<polygon fill="#FFFFFF" points="36.13,130.52 47.55,119.1 177.89,119.1 189.32,130.52 189.32,141.95 177.89,153.38 47.55,153.38 
	36.13,141.95 "/>
<text transform="matrix(1 0 0 1 38.6541 138.5401)" font-family="'Courier New'" font-size="10px">c = ((a1 + (2 * a2)) + b)</text>
<circle fill="none" stroke="#000000" stroke-miterlimit="10" cx="93.34" cy="119.1" r="5"/>
<circle fill="#F0FDFF" cx="93.34" cy="119.1" r="5"/>
<circle fill="none" stroke="#000000" stroke-miterlimit="10" cx="113.34" cy="119.1" r="5"/>
<circle fill="#F0FDFF" cx="113.34" cy="119.1" r="5"/>
<circle fill="none" stroke="#000000" stroke-miterlimit="10" cx="133.34" cy="119.1" r="5"/>
<circle fill="#F0FDFF" cx="133.34" cy="119.1" r="5"/>
<circle fill="none" stroke="#000000" stroke-miterlimit="10" cx="113.34" cy="153.38" r="5"/>
<circle fill="#F0FDFF" cx="113.34" cy="153.38" r="5"/>
<g>
	<g>
		<line fill="none" stroke="#000000" stroke-miterlimit="10" x1="113.34" y1="158.38" x2="113.34" y2="173"/>
		<g>
			<polygon points="109.6,171.9 113.34,178.38 117.08,171.9 			"/>
		</g>
	</g>
	<g>
		<path fill="none" stroke="#000000" stroke-miterlimit="10" d="M125.98,93.33c0,0,6.06,7,7.33,15.03"/>
		<g>
			<polygon points="129.4,107.39 133.34,113.75 136.88,107.16 			"/>
		</g>
	</g>
	<g>
		<path fill="none" stroke="#000000" stroke-miterlimit="10" d="M151.67,24.81c0,0-0.59,14.63-19.44,24.73"/>
		<g>
			<polygon points="131.52,45.64 127.37,51.86 134.83,52.35 			"/>
		</g>
	</g>
</g>
<g>
	<path fill="none" stroke="#FFA500" stroke-width="1" stroke-miterlimit="10" d="M73.94,25.67c0,0,1.18,14.12,20.12,24.15"/>
	<g>
		<polygon fill="#FFA500" points="91.47,52.63 98.93,52.12 94.76,45.92 		"/>
	</g>
</g>
<g>
	<path fill="none" stroke="#FFA500" stroke-width="1" stroke-miterlimit="10" d="M100.69,93.33c0,0-6.36,7-7.74,15.04"/>
	<g>
		<polygon fill="#FFA500" points="89.4,107.14 92.89,113.75 96.87,107.42 		"/>
	</g>
</g>
<g>
	<path fill="none" stroke="#FFA500" stroke-width="1" stroke-miterlimit="10" d="M105.99,93.33c0,0,6.06,7,7.33,15.03"/>
	<g>
		<polygon fill="#FFA500" points="109.4,107.39 113.34,113.75 116.88,107.16 		"/>
	</g>
</g>
<g>
	<path opacity="0.97" fill="#2A2A2A" d="M104.03,48.11l2.64-3.06c0.14-0.12,0.95-0.08,0.95-0.08h9.05c0.92,0,1.67-0.75,1.67-1.67
		V27.33c0-0.92-0.75-1.67-1.67-1.67H90c-0.92,0-1.67,0.75-1.67,1.67v15.98c0,0.92,0.75,1.67,1.67,1.67h11.17"/>
	<text transform="matrix(1 0 0 1 90.1691 37.9723)"><tspan x="0" y="0" fill="#FFFFFF" font-family="'Arial'" font-size="12px">IN_</tspan><tspan x="18.67" y="0" fill="#FFFFFF" font-family="'Arial'" font-size="12px">A</tspan></text>
</g>
<path opacity="0.97" fill="#2A2A2A" d="M96.69,89.31L94.42,88c-0.09-0.07-0.06-0.47-0.06-0.47L94.34,83c0-0.46-0.56-0.83-1.24-0.83
	l-44.32,0.06c-0.68,0-1.23,0.38-1.23,0.84l0.07,13.33c0,0.46,0.56,0.83,1.24,0.83l44.32-0.06c0.68,0,1.23-0.38,1.23-0.84l-0.03-5.58
	"/>
<text transform="matrix(1 0 0 1 50.8173 93.3331)"><tspan x="0" y="0" fill="#FFFFFF" font-family="'Arial'" font-size="12px">OUT_</tspan><tspan x="32" y="0" fill="#FFFFFF" font-family="'Arial'" font-size="12px">A</tspan></text>
<text transform="matrix(1 0 0 1 89.7475 120.7977)" font-family="'Courier New'" font-size="6px">a1</text>
<text transform="matrix(1 0 0 1 109.7633 120.7977)" font-family="'Courier New'" font-size="6px">a2</text>
<text transform="matrix(1 0 0 1 111.68 154.7144)" font-family="'Courier New'" font-size="6px">c</text>
<text transform="matrix(1 0 0 1 131.7977 120.7977)" font-family="'Courier New'" font-size="6px">b</text>
<text transform="matrix(1 0 0 1 9.0911 113.7222)"><tspan x="0" y="0" fill="#616161" font-family="'Arial'" font-size="12px">V</tspan><tspan x="7.79" y="0" fill="#616161" font-family="'Arial'" font-size="12px">iew</tspan></text>
<text transform="matrix(1 0 0 1 157.8538 35.5319)" fill="#616161" font-family="'Arial'" font-size="12px">Passthrough</text>
<line fill="none" stroke="#616161" stroke-miterlimit="10" x1="38.71" y1="110.56" x2="84.63" y2="116.23"/>
<line fill="none" stroke="#616161" stroke-miterlimit="10" x1="136.44" y1="53.11" x2="187.33" y2="38.33"/>
<line fill="none" stroke="#616161" stroke-miterlimit="10" x1="129.76" y1="86.89" x2="187.33" y2="38.33"/>
</svg>
