<?xml version="1.0" encoding="utf-8"?>
<!-- Generator: Adobe Illustrator 26.4.1, SVG Export Plug-In . SVG Version: 6.00 Build 0)  -->
<svg version="1.1" id="Layer_1" xmlns="http://www.w3.org/2000/svg" xmlns:xlink="http://www.w3.org/1999/xlink" x="0px" y="0px"
	 width="158.67px" height="274.33px" viewBox="0 0 158.67 274.33" enable-background="new 0 0 158.67 274.33" xml:space="preserve">
<g>
	<path d="M7.12,25.49l1.43-0.12c0.07,0.57,0.23,1.04,0.47,1.41s0.63,0.66,1.15,0.89S11.29,28,11.94,28c0.58,0,1.09-0.09,1.53-0.26
		s0.77-0.41,0.99-0.71c0.22-0.3,0.32-0.63,0.32-0.98c0-0.36-0.1-0.67-0.31-0.94c-0.21-0.27-0.55-0.49-1.03-0.68
		c-0.31-0.12-0.99-0.31-2.04-0.56c-1.05-0.25-1.79-0.49-2.21-0.71c-0.55-0.29-0.95-0.64-1.22-1.07c-0.27-0.42-0.4-0.9-0.4-1.43
		c0-0.58,0.16-1.12,0.49-1.62c0.33-0.5,0.81-0.88,1.44-1.14c0.63-0.26,1.33-0.39,2.1-0.39c0.85,0,1.6,0.14,2.25,0.41
		s1.15,0.68,1.5,1.21s0.54,1.13,0.56,1.8l-1.45,0.11c-0.08-0.72-0.34-1.27-0.79-1.64c-0.45-0.37-1.12-0.55-2-0.55
		c-0.92,0-1.58,0.17-2,0.5s-0.63,0.74-0.63,1.21c0,0.41,0.15,0.75,0.45,1.02c0.29,0.27,1.05,0.54,2.29,0.82
		c1.23,0.28,2.08,0.52,2.54,0.73c0.67,0.31,1.16,0.7,1.48,1.17c0.32,0.47,0.48,1.01,0.48,1.63c0,0.61-0.17,1.18-0.52,1.72
		s-0.85,0.96-1.5,1.26s-1.39,0.45-2.21,0.45c-1.04,0-1.91-0.15-2.61-0.45s-1.25-0.76-1.65-1.36C7.35,26.94,7.14,26.25,7.12,25.49z"
		/>
	<path d="M23.55,26.13l1.38,0.18c-0.15,0.95-0.54,1.7-1.16,2.24s-1.39,0.81-2.29,0.81c-1.14,0-2.05-0.37-2.74-1.11
		s-1.04-1.81-1.04-3.19c0-0.9,0.15-1.68,0.45-2.35s0.75-1.18,1.36-1.51s1.27-0.5,1.98-0.5c0.9,0,1.64,0.23,2.21,0.68
		c0.57,0.46,0.94,1.1,1.1,1.94l-1.37,0.21c-0.13-0.56-0.36-0.98-0.69-1.26s-0.73-0.42-1.2-0.42c-0.71,0-1.28,0.25-1.73,0.76
		s-0.66,1.31-0.66,2.41c0,1.11,0.21,1.92,0.64,2.43c0.43,0.51,0.98,0.76,1.67,0.76c0.55,0,1.01-0.17,1.38-0.51
		C23.21,27.35,23.45,26.83,23.55,26.13z"/>
	<path d="M25.61,25.02c0-1.54,0.43-2.67,1.28-3.41c0.71-0.61,1.58-0.92,2.61-0.92c1.14,0,2.07,0.37,2.8,1.12
		c0.72,0.75,1.09,1.78,1.09,3.1c0,1.07-0.16,1.91-0.48,2.52c-0.32,0.61-0.79,1.09-1.4,1.43c-0.61,0.34-1.28,0.51-2,0.51
		c-1.16,0-2.1-0.37-2.82-1.12C25.97,27.49,25.61,26.42,25.61,25.02z M27.05,25.02c0,1.06,0.23,1.86,0.7,2.39
		c0.46,0.53,1.05,0.79,1.75,0.79c0.7,0,1.28-0.27,1.74-0.8s0.7-1.34,0.7-2.43c0-1.03-0.23-1.8-0.7-2.33
		c-0.47-0.53-1.05-0.79-1.74-0.79c-0.7,0-1.29,0.26-1.75,0.79C27.29,23.16,27.05,23.96,27.05,25.02z"/>
	<path d="M35.03,32.35V20.87h1.28v1.08c0.3-0.42,0.64-0.74,1.02-0.95s0.84-0.32,1.38-0.32c0.71,0,1.33,0.18,1.88,0.55
		c0.54,0.36,0.95,0.88,1.23,1.54s0.41,1.39,0.41,2.18c0,0.85-0.15,1.61-0.46,2.29s-0.75,1.2-1.33,1.56s-1.19,0.54-1.83,0.54
		c-0.47,0-0.89-0.1-1.26-0.3s-0.68-0.45-0.92-0.75v4.04H35.03z M36.3,25.07c0,1.07,0.22,1.86,0.65,2.37
		c0.43,0.51,0.96,0.77,1.57,0.77c0.62,0,1.16-0.26,1.61-0.79c0.45-0.53,0.67-1.35,0.67-2.46c0-1.06-0.22-1.85-0.65-2.38
		c-0.43-0.53-0.95-0.79-1.56-0.79c-0.6,0-1.13,0.28-1.59,0.84C36.53,23.18,36.3,24,36.3,25.07z"/>
	<path d="M49.61,26.5l1.45,0.18c-0.23,0.85-0.65,1.51-1.27,1.98s-1.41,0.7-2.38,0.7c-1.21,0-2.18-0.37-2.89-1.12
		c-0.71-0.75-1.07-1.8-1.07-3.14c0-1.4,0.36-2.48,1.08-3.25c0.72-0.77,1.65-1.16,2.8-1.16c1.11,0,2.02,0.38,2.72,1.13
		c0.7,0.76,1.05,1.82,1.05,3.19c0,0.08,0,0.21-0.01,0.38h-6.19c0.05,0.91,0.31,1.61,0.77,2.09s1.04,0.73,1.73,0.73
		c0.52,0,0.96-0.14,1.32-0.41C49.11,27.52,49.39,27.09,49.61,26.5z M44.99,24.22h4.63c-0.06-0.7-0.24-1.22-0.53-1.57
		c-0.45-0.54-1.03-0.81-1.74-0.81c-0.65,0-1.19,0.22-1.63,0.65C45.28,22.92,45.04,23.5,44.99,24.22z"/>
	<path d="M60.08,29.17v-10.1H56.3v-1.35h9.08v1.35h-3.79v10.1H60.08z"/>
	<path d="M66.15,29.17v-8.3h1.27v1.26c0.32-0.59,0.62-0.98,0.89-1.16s0.57-0.28,0.9-0.28c0.47,0,0.96,0.15,1.45,0.45l-0.48,1.3
		c-0.34-0.2-0.69-0.3-1.03-0.3c-0.31,0-0.58,0.09-0.83,0.28c-0.25,0.19-0.42,0.44-0.52,0.77c-0.16,0.5-0.23,1.05-0.23,1.64v4.34
		H66.15z"/>
	<path d="M77.17,26.5l1.45,0.18c-0.23,0.85-0.65,1.51-1.27,1.98s-1.41,0.7-2.38,0.7c-1.21,0-2.18-0.37-2.89-1.12
		c-0.71-0.75-1.07-1.8-1.07-3.14c0-1.4,0.36-2.48,1.08-3.25c0.72-0.77,1.65-1.16,2.8-1.16c1.11,0,2.02,0.38,2.72,1.13
		c0.7,0.76,1.05,1.82,1.05,3.19c0,0.08,0,0.21-0.01,0.38h-6.19c0.05,0.91,0.31,1.61,0.77,2.09s1.04,0.73,1.73,0.73
		c0.52,0,0.96-0.14,1.32-0.41C76.67,27.52,76.96,27.09,77.17,26.5z M72.55,24.22h4.63c-0.06-0.7-0.24-1.22-0.53-1.57
		c-0.45-0.54-1.03-0.81-1.74-0.81c-0.65,0-1.19,0.22-1.63,0.65C72.84,22.92,72.6,23.5,72.55,24.22z"/>
	<path d="M86.07,26.5l1.45,0.18c-0.23,0.85-0.65,1.51-1.27,1.98s-1.41,0.7-2.38,0.7c-1.21,0-2.18-0.37-2.89-1.12
		c-0.71-0.75-1.07-1.8-1.07-3.14c0-1.4,0.36-2.48,1.08-3.25c0.72-0.77,1.65-1.16,2.8-1.16c1.11,0,2.02,0.38,2.72,1.13
		c0.7,0.76,1.05,1.82,1.05,3.19c0,0.08,0,0.21-0.01,0.38h-6.19c0.05,0.91,0.31,1.61,0.77,2.09s1.04,0.73,1.73,0.73
		c0.52,0,0.96-0.14,1.32-0.41C85.57,27.52,85.86,27.09,86.07,26.5z M81.45,24.22h4.63c-0.06-0.7-0.24-1.22-0.53-1.57
		c-0.45-0.54-1.03-0.81-1.74-0.81c-0.65,0-1.19,0.22-1.63,0.65C81.74,22.92,81.5,23.5,81.45,24.22z"/>
	<path d="M89.68,22.47v-1.6h1.6v1.6H89.68z M89.68,29.17v-1.6h1.6v1.6H89.68z"/>
</g>
<g>
	<path d="M6.1,155.67l1.43-0.12c0.07,0.57,0.23,1.04,0.47,1.41s0.63,0.66,1.15,0.89s1.11,0.34,1.76,0.34c0.58,0,1.09-0.09,1.53-0.26
		s0.77-0.41,0.99-0.71c0.22-0.3,0.32-0.63,0.32-0.98c0-0.36-0.1-0.67-0.31-0.94c-0.21-0.27-0.55-0.49-1.03-0.68
		c-0.31-0.12-0.99-0.31-2.04-0.56c-1.05-0.25-1.79-0.49-2.21-0.71c-0.55-0.29-0.95-0.64-1.22-1.07c-0.27-0.42-0.4-0.9-0.4-1.43
		c0-0.58,0.16-1.12,0.49-1.62c0.33-0.5,0.81-0.88,1.44-1.14c0.63-0.26,1.33-0.39,2.1-0.39c0.85,0,1.6,0.14,2.25,0.41
		s1.15,0.68,1.5,1.21s0.54,1.13,0.56,1.8l-1.45,0.11c-0.08-0.72-0.34-1.27-0.79-1.64c-0.45-0.37-1.12-0.55-2-0.55
		c-0.92,0-1.58,0.17-2,0.5S8,150.28,8,150.76c0,0.41,0.15,0.75,0.45,1.02c0.29,0.27,1.05,0.54,2.29,0.82
		c1.23,0.28,2.08,0.52,2.54,0.73c0.67,0.31,1.16,0.7,1.48,1.17c0.32,0.47,0.48,1.01,0.48,1.63c0,0.61-0.17,1.18-0.52,1.72
		s-0.85,0.96-1.5,1.26c-0.65,0.3-1.39,0.45-2.21,0.45c-1.04,0-1.91-0.15-2.61-0.45s-1.25-0.76-1.65-1.36
		C6.33,157.12,6.12,156.44,6.1,155.67z"/>
	<path d="M22.52,156.31l1.38,0.18c-0.15,0.95-0.54,1.7-1.16,2.24s-1.39,0.81-2.29,0.81c-1.14,0-2.05-0.37-2.74-1.11
		s-1.04-1.81-1.04-3.19c0-0.9,0.15-1.68,0.45-2.35s0.75-1.18,1.36-1.51s1.27-0.5,1.98-0.5c0.9,0,1.64,0.23,2.21,0.68
		c0.57,0.46,0.94,1.1,1.1,1.94l-1.37,0.21c-0.13-0.56-0.36-0.98-0.69-1.26s-0.73-0.42-1.2-0.42c-0.71,0-1.28,0.25-1.73,0.76
		s-0.66,1.31-0.66,2.41c0,1.12,0.21,1.92,0.64,2.43c0.43,0.51,0.98,0.76,1.67,0.76c0.55,0,1.01-0.17,1.38-0.51
		C22.19,157.53,22.43,157.01,22.52,156.31z"/>
	<path d="M24.59,155.2c0-1.54,0.43-2.67,1.28-3.41c0.71-0.61,1.58-0.92,2.61-0.92c1.14,0,2.07,0.37,2.8,1.12
		c0.72,0.75,1.09,1.78,1.09,3.1c0,1.07-0.16,1.91-0.48,2.52c-0.32,0.61-0.79,1.09-1.4,1.43c-0.61,0.34-1.28,0.51-2,0.51
		c-1.16,0-2.1-0.37-2.82-1.12C24.95,157.68,24.59,156.6,24.59,155.2z M26.03,155.2c0,1.06,0.23,1.86,0.7,2.39
		c0.46,0.53,1.05,0.79,1.75,0.79c0.7,0,1.28-0.27,1.74-0.8s0.7-1.34,0.7-2.43c0-1.03-0.23-1.8-0.7-2.33
		c-0.47-0.53-1.05-0.79-1.74-0.79c-0.7,0-1.29,0.26-1.75,0.79C26.26,153.34,26.03,154.14,26.03,155.2z"/>
	<path d="M34.01,162.53v-11.48h1.28v1.08c0.3-0.42,0.64-0.74,1.02-0.95s0.84-0.32,1.38-0.32c0.71,0,1.33,0.18,1.88,0.55
		c0.54,0.37,0.95,0.88,1.23,1.54s0.41,1.39,0.41,2.18c0,0.85-0.15,1.61-0.46,2.29s-0.75,1.2-1.33,1.56
		c-0.58,0.36-1.19,0.54-1.83,0.54c-0.47,0-0.89-0.1-1.26-0.3c-0.37-0.2-0.68-0.45-0.92-0.75v4.04H34.01z M35.28,155.25
		c0,1.07,0.22,1.86,0.65,2.37c0.43,0.51,0.96,0.77,1.57,0.77c0.62,0,1.16-0.26,1.61-0.79c0.45-0.53,0.67-1.35,0.67-2.46
		c0-1.06-0.22-1.85-0.65-2.38c-0.43-0.53-0.95-0.79-1.56-0.79c-0.6,0-1.13,0.28-1.59,0.84C35.51,153.37,35.28,154.18,35.28,155.25z"
		/>
	<path d="M48.59,156.68l1.45,0.18c-0.23,0.85-0.65,1.51-1.27,1.98s-1.41,0.7-2.38,0.7c-1.21,0-2.18-0.37-2.89-1.12
		c-0.71-0.75-1.07-1.79-1.07-3.14c0-1.4,0.36-2.48,1.08-3.25c0.72-0.77,1.65-1.16,2.8-1.16c1.11,0,2.02,0.38,2.72,1.13
		c0.7,0.76,1.05,1.82,1.05,3.19c0,0.08,0,0.21-0.01,0.38h-6.19c0.05,0.91,0.31,1.61,0.77,2.09s1.04,0.73,1.73,0.73
		c0.52,0,0.96-0.13,1.32-0.41C48.08,157.7,48.37,157.27,48.59,156.68z M43.97,154.4h4.63c-0.06-0.7-0.24-1.22-0.53-1.57
		c-0.45-0.54-1.03-0.81-1.74-0.81c-0.65,0-1.19,0.22-1.63,0.65C44.26,153.1,44.02,153.68,43.97,154.4z"/>
	<path d="M56.43,159.35V147.9h4.32c0.76,0,1.34,0.04,1.74,0.11c0.56,0.09,1.03,0.27,1.41,0.54c0.38,0.26,0.69,0.63,0.92,1.11
		c0.23,0.47,0.35,1,0.35,1.56c0,0.97-0.31,1.8-0.93,2.47c-0.62,0.67-1.74,1.01-3.36,1.01h-2.94v4.66H56.43z M57.95,153.34h2.96
		c0.98,0,1.67-0.18,2.09-0.55c0.41-0.36,0.62-0.88,0.62-1.54c0-0.48-0.12-0.89-0.36-1.23c-0.24-0.34-0.56-0.57-0.96-0.68
		c-0.25-0.07-0.73-0.1-1.41-0.1h-2.93V153.34z"/>
	<path d="M72.34,158.33c-0.52,0.44-1.02,0.76-1.5,0.94c-0.48,0.18-1,0.27-1.55,0.27c-0.91,0-1.61-0.22-2.1-0.67
		s-0.73-1.01-0.73-1.71c0-0.41,0.09-0.78,0.28-1.11s0.43-0.61,0.73-0.81s0.64-0.36,1.01-0.46c0.28-0.07,0.69-0.14,1.25-0.21
		c1.14-0.13,1.97-0.3,2.51-0.48c0-0.19,0.01-0.31,0.01-0.37c0-0.57-0.13-0.98-0.4-1.21c-0.36-0.32-0.89-0.48-1.6-0.48
		c-0.66,0-1.15,0.12-1.46,0.35c-0.32,0.23-0.55,0.64-0.7,1.23l-1.38-0.19c0.12-0.59,0.33-1.06,0.62-1.43
		c0.29-0.36,0.7-0.64,1.24-0.84s1.17-0.29,1.88-0.29c0.71,0,1.28,0.08,1.73,0.25c0.44,0.17,0.77,0.38,0.98,0.63
		c0.21,0.25,0.35,0.57,0.44,0.96c0.05,0.24,0.07,0.67,0.07,1.3v1.88c0,1.31,0.03,2.13,0.09,2.48c0.06,0.35,0.18,0.68,0.36,1h-1.47
		C72.47,159.06,72.38,158.72,72.34,158.33z M72.22,155.19c-0.51,0.21-1.28,0.39-2.3,0.53c-0.58,0.08-0.99,0.18-1.23,0.28
		c-0.24,0.1-0.42,0.26-0.55,0.46c-0.13,0.2-0.2,0.42-0.2,0.67c0,0.38,0.14,0.69,0.43,0.94s0.7,0.38,1.25,0.38
		c0.54,0,1.02-0.12,1.45-0.36c0.42-0.24,0.73-0.56,0.93-0.97c0.15-0.32,0.23-0.79,0.23-1.41V155.19z"/>
	<path d="M75.81,159.35v-8.3h1.27v1.26c0.32-0.59,0.62-0.98,0.89-1.16s0.57-0.28,0.9-0.28c0.47,0,0.96,0.15,1.45,0.45l-0.48,1.3
		c-0.34-0.2-0.69-0.3-1.03-0.3c-0.31,0-0.58,0.09-0.83,0.28c-0.25,0.19-0.42,0.44-0.52,0.77c-0.16,0.5-0.23,1.05-0.23,1.64v4.34
		H75.81z"/>
	<path d="M86.83,156.68l1.45,0.18c-0.23,0.85-0.65,1.51-1.27,1.98s-1.41,0.7-2.38,0.7c-1.21,0-2.18-0.37-2.89-1.12
		c-0.71-0.75-1.07-1.79-1.07-3.14c0-1.4,0.36-2.48,1.08-3.25c0.72-0.77,1.65-1.16,2.8-1.16c1.11,0,2.02,0.38,2.72,1.13
		c0.7,0.76,1.05,1.82,1.05,3.19c0,0.08,0,0.21-0.01,0.38h-6.19c0.05,0.91,0.31,1.61,0.77,2.09s1.04,0.73,1.73,0.73
		c0.52,0,0.96-0.13,1.32-0.41C86.33,157.7,86.62,157.27,86.83,156.68z M82.21,154.4h4.63c-0.06-0.7-0.24-1.22-0.53-1.57
		c-0.45-0.54-1.03-0.81-1.74-0.81c-0.65,0-1.19,0.22-1.63,0.65C82.5,153.1,82.26,153.68,82.21,154.4z"/>
	<path d="M90.05,159.35v-8.3h1.27v1.18c0.61-0.91,1.49-1.37,2.64-1.37c0.5,0,0.96,0.09,1.38,0.27s0.73,0.42,0.94,0.71
		c0.21,0.29,0.35,0.64,0.44,1.04c0.05,0.26,0.08,0.72,0.08,1.37v5.1h-1.41v-5.05c0-0.57-0.05-1-0.16-1.29
		c-0.11-0.28-0.3-0.51-0.58-0.68c-0.28-0.17-0.61-0.25-0.98-0.25c-0.6,0-1.12,0.19-1.55,0.57c-0.43,0.38-0.65,1.1-0.65,2.16v4.53
		H90.05z"/>
	<path d="M102.02,158.09l0.2,1.24c-0.4,0.08-0.75,0.12-1.06,0.12c-0.51,0-0.91-0.08-1.19-0.24s-0.48-0.37-0.59-0.64
		c-0.11-0.26-0.17-0.82-0.17-1.66v-4.77h-1.03v-1.09h1.03V149l1.4-0.84v2.9h1.41v1.09h-1.41V157c0,0.4,0.02,0.66,0.07,0.77
		c0.05,0.12,0.13,0.21,0.24,0.27c0.11,0.07,0.27,0.1,0.48,0.1C101.56,158.15,101.76,158.13,102.02,158.09z"/>
	<path d="M103.78,152.65v-1.6h1.6v1.6H103.78z M103.78,159.35v-1.6h1.6v1.6H103.78z"/>
</g>
<g>
	<g>
		<ellipse fill="none" stroke="#000000" stroke-width="2" stroke-miterlimit="10" cx="76.12" cy="88.35" rx="5.57" ry="4.17"/>
		<ellipse fill="#FFFFFF" cx="76.12" cy="88.35" rx="5.57" ry="4.17"/>
		<g>
			<path d="M73.89,90.47l1.92-5.01h0.71l2.05,5.01h-0.76l-0.58-1.52h-2.1l-0.55,1.52H73.89z M75.34,88.41h1.7l-0.52-1.39
				c-0.16-0.42-0.28-0.77-0.36-1.04c-0.06,0.32-0.15,0.64-0.27,0.96L75.34,88.41z"/>
		</g>
	</g>
	<g>
		<ellipse fill="none" stroke="#000000" stroke-width="2" stroke-miterlimit="10" cx="134.12" cy="88.35" rx="5.57" ry="4.17"/>
		<ellipse fill="#FFFFFF" cx="134.12" cy="88.35" rx="5.57" ry="4.17"/>
		<g>
			<path d="M132.42,90.47v-5.01h1.88c0.38,0,0.69,0.05,0.92,0.15c0.23,0.1,0.41,0.26,0.54,0.47c0.13,0.21,0.2,0.43,0.2,0.66
				c0,0.21-0.06,0.42-0.17,0.6c-0.12,0.19-0.29,0.34-0.53,0.46c0.3,0.09,0.54,0.24,0.7,0.46c0.16,0.21,0.25,0.47,0.25,0.76
				c0,0.24-0.05,0.45-0.15,0.66c-0.1,0.2-0.22,0.36-0.37,0.47s-0.33,0.19-0.55,0.25s-0.49,0.08-0.81,0.08H132.42z M133.08,87.57
				h1.08c0.29,0,0.5-0.02,0.63-0.06c0.17-0.05,0.3-0.13,0.38-0.25c0.09-0.12,0.13-0.26,0.13-0.44c0-0.17-0.04-0.31-0.12-0.44
				c-0.08-0.13-0.19-0.21-0.34-0.26c-0.15-0.05-0.4-0.07-0.76-0.07h-1V87.57z M133.08,89.88h1.25c0.21,0,0.36-0.01,0.45-0.02
				c0.15-0.03,0.28-0.07,0.38-0.14c0.1-0.06,0.19-0.16,0.25-0.28c0.07-0.12,0.1-0.26,0.1-0.42c0-0.19-0.05-0.35-0.14-0.49
				c-0.1-0.14-0.23-0.23-0.4-0.29c-0.17-0.06-0.41-0.08-0.73-0.08h-1.16V89.88z"/>
		</g>
	</g>
	<g>
		<polygon fill="#FFFFFF" stroke="#000000" stroke-width="0.5" stroke-miterlimit="10" points="70.25,101.31 72.57,99 84.61,99 
			86.92,101.31 86.92,103.63 84.61,105.94 72.57,105.94 70.25,103.63 		"/>
		<g>
			<path d="M75.84,101.65v0.55c0.1-0.13,0.22-0.2,0.36-0.2c0.12,0,0.23,0.04,0.31,0.13c0.09,0.09,0.13,0.2,0.13,0.32
				c0,0.13-0.04,0.24-0.13,0.33c-0.09,0.09-0.19,0.13-0.31,0.13c-0.14,0-0.27-0.06-0.36-0.2v0.16h-0.2c-0.02,0-0.03,0-0.04-0.01
				c-0.01-0.01-0.01-0.02-0.01-0.03c0-0.01,0-0.02,0.01-0.03c0.01-0.01,0.02-0.01,0.04-0.01h0.11v-1.07h-0.11
				c-0.02,0-0.03,0-0.04-0.01c-0.01-0.01-0.01-0.02-0.01-0.03c0-0.01,0-0.02,0.01-0.03c0.01-0.01,0.02-0.01,0.04-0.01H75.84z
				 M76.56,102.46c0-0.11-0.04-0.19-0.11-0.27c-0.07-0.07-0.16-0.11-0.25-0.11c-0.1,0-0.18,0.04-0.25,0.11
				c-0.07,0.07-0.11,0.16-0.11,0.27c0,0.1,0.04,0.19,0.11,0.27c0.07,0.07,0.16,0.11,0.25,0.11c0.1,0,0.18-0.04,0.25-0.11
				C76.53,102.66,76.56,102.57,76.56,102.46z"/>
			<path d="M79.04,102.2h-0.91c-0.02,0-0.03,0-0.04-0.01c-0.01-0.01-0.01-0.02-0.01-0.03c0-0.01,0-0.02,0.01-0.03
				c0.01-0.01,0.02-0.01,0.04-0.01h0.91c0.02,0,0.03,0,0.04,0.01c0.01,0.01,0.01,0.02,0.01,0.03c0,0.01,0,0.02-0.01,0.03
				S79.06,102.2,79.04,102.2z M79.04,102.5h-0.91c-0.02,0-0.03,0-0.04-0.01c-0.01-0.01-0.01-0.02-0.01-0.03c0-0.01,0-0.02,0.01-0.03
				c0.01-0.01,0.02-0.01,0.04-0.01h0.91c0.02,0,0.03,0,0.04,0.01c0.01,0.01,0.01,0.02,0.01,0.03c0,0.01,0,0.02-0.01,0.03
				C79.07,102.5,79.06,102.5,79.04,102.5z"/>
			<path d="M81.25,102.89v-0.12c-0.12,0.1-0.25,0.15-0.39,0.15c-0.1,0-0.18-0.02-0.23-0.08c-0.06-0.05-0.08-0.11-0.08-0.19
				c0-0.08,0.04-0.15,0.11-0.21c0.07-0.06,0.18-0.09,0.32-0.09c0.04,0,0.08,0,0.12,0.01s0.09,0.01,0.15,0.02v-0.13
				c0-0.05-0.02-0.08-0.06-0.12c-0.04-0.03-0.11-0.05-0.19-0.05c-0.06,0-0.15,0.02-0.27,0.06c-0.02,0.01-0.03,0.01-0.04,0.01
				c-0.01,0-0.02,0-0.03-0.01c-0.01-0.01-0.01-0.02-0.01-0.03c0-0.01,0-0.02,0.01-0.03c0.01-0.01,0.05-0.02,0.11-0.04
				c0.1-0.03,0.18-0.04,0.23-0.04c0.1,0,0.19,0.03,0.25,0.08c0.06,0.05,0.09,0.11,0.09,0.18v0.55h0.11c0.02,0,0.04,0,0.04,0.01
				c0.01,0.01,0.01,0.02,0.01,0.03c0,0.01,0,0.02-0.01,0.03c-0.01,0.01-0.02,0.01-0.04,0.01H81.25z M81.25,102.48
				c-0.04-0.01-0.08-0.02-0.12-0.03c-0.04,0-0.09-0.01-0.14-0.01c-0.12,0-0.21,0.03-0.28,0.08c-0.05,0.04-0.08,0.09-0.08,0.14
				c0,0.05,0.02,0.09,0.06,0.13s0.1,0.05,0.17,0.05c0.07,0,0.14-0.01,0.2-0.04c0.06-0.03,0.12-0.07,0.19-0.14V102.48z"/>
		</g>
	</g>
	<g>
		<polygon fill="#FFFFFF" stroke="#000000" stroke-width="0.5" stroke-miterlimit="10" points="96.56,101.31 98.87,99 110.91,99 
			113.23,101.31 113.23,103.63 110.91,105.94 98.87,105.94 96.56,103.63 		"/>
		<g>
			<path d="M101.54,101.65v0.55c0.1-0.13,0.22-0.2,0.36-0.2c0.12,0,0.23,0.04,0.31,0.13c0.09,0.09,0.13,0.2,0.13,0.32
				c0,0.13-0.04,0.24-0.13,0.33c-0.09,0.09-0.19,0.13-0.31,0.13c-0.14,0-0.27-0.06-0.36-0.2v0.16h-0.2c-0.02,0-0.03,0-0.04-0.01
				c-0.01-0.01-0.01-0.02-0.01-0.03c0-0.01,0-0.02,0.01-0.03c0.01-0.01,0.02-0.01,0.04-0.01h0.11v-1.07h-0.11
				c-0.02,0-0.03,0-0.04-0.01c-0.01-0.01-0.01-0.02-0.01-0.03c0-0.01,0-0.02,0.01-0.03c0.01-0.01,0.02-0.01,0.04-0.01H101.54z
				 M102.26,102.46c0-0.11-0.04-0.19-0.11-0.27c-0.07-0.07-0.16-0.11-0.25-0.11c-0.1,0-0.18,0.04-0.25,0.11
				c-0.07,0.07-0.11,0.16-0.11,0.27c0,0.1,0.04,0.19,0.11,0.27c0.07,0.07,0.16,0.11,0.25,0.11c0.1,0,0.18-0.04,0.25-0.11
				C102.23,102.66,102.26,102.57,102.26,102.46z"/>
			<path d="M104.74,102.2h-0.91c-0.02,0-0.03,0-0.04-0.01c-0.01-0.01-0.01-0.02-0.01-0.03c0-0.01,0-0.02,0.01-0.03
				c0.01-0.01,0.02-0.01,0.04-0.01h0.91c0.02,0,0.03,0,0.04,0.01c0.01,0.01,0.01,0.02,0.01,0.03c0,0.01,0,0.02-0.01,0.03
				S104.76,102.2,104.74,102.2z M104.74,102.5h-0.91c-0.02,0-0.03,0-0.04-0.01c-0.01-0.01-0.01-0.02-0.01-0.03
				c0-0.01,0-0.02,0.01-0.03c0.01-0.01,0.02-0.01,0.04-0.01h0.91c0.02,0,0.03,0,0.04,0.01c0.01,0.01,0.01,0.02,0.01,0.03
				c0,0.01,0,0.02-0.01,0.03C104.77,102.5,104.76,102.5,104.74,102.5z"/>
			<path d="M107.14,102.26v0.12h-0.85v-0.12H107.14z"/>
			<path d="M108.17,102.89v-0.12c-0.12,0.1-0.25,0.15-0.39,0.15c-0.1,0-0.18-0.02-0.23-0.08c-0.06-0.05-0.08-0.11-0.08-0.19
				c0-0.08,0.04-0.15,0.11-0.21c0.07-0.06,0.18-0.09,0.32-0.09c0.04,0,0.08,0,0.12,0.01s0.09,0.01,0.15,0.02v-0.13
				c0-0.05-0.02-0.08-0.06-0.12c-0.04-0.03-0.11-0.05-0.19-0.05c-0.06,0-0.15,0.02-0.27,0.06c-0.02,0.01-0.03,0.01-0.04,0.01
				c-0.01,0-0.02,0-0.03-0.01c-0.01-0.01-0.01-0.02-0.01-0.03c0-0.01,0-0.02,0.01-0.03c0.01-0.01,0.05-0.02,0.11-0.04
				c0.1-0.03,0.18-0.04,0.23-0.04c0.1,0,0.19,0.03,0.25,0.08c0.06,0.05,0.09,0.11,0.09,0.18v0.55h0.11c0.02,0,0.04,0,0.04,0.01
				c0.01,0.01,0.01,0.02,0.01,0.03c0,0.01,0,0.02-0.01,0.03c-0.01,0.01-0.02,0.01-0.04,0.01H108.17z M108.17,102.48
				c-0.04-0.01-0.08-0.02-0.12-0.03c-0.04,0-0.09-0.01-0.14-0.01c-0.12,0-0.21,0.03-0.28,0.08c-0.05,0.04-0.08,0.09-0.08,0.14
				c0,0.05,0.02,0.09,0.06,0.13s0.1,0.05,0.17,0.05c0.07,0,0.14-0.01,0.2-0.04c0.06-0.03,0.12-0.07,0.19-0.14V102.48z"/>
		</g>
	</g>
	<g>
		<polygon fill="none" stroke="#000000" stroke-miterlimit="10" points="120.44,100.23 147.81,100.23 141.82,106.22 126.43,106.22 
					"/>
		<polygon fill="#FFFFFF" points="120.44,100.23 147.81,100.23 141.82,106.22 126.43,106.22 		"/>
		<g>
			<path d="M128.3,104.95v-2.74h0.58v0.22h-0.32v2.31h0.32v0.22H128.3z"/>
			<path d="M129.13,102.51v-0.3h0.26v0.3H129.13z M129.13,104.35v-1.56h0.26v1.56H129.13z"/>
			<path d="M131.19,103.09h-1.42v-0.25h1.42V103.09z M131.19,103.74h-1.42v-0.25h1.42V103.74z"/>
			<path d="M131.48,103.29c0-0.25,0.03-0.46,0.08-0.61c0.05-0.15,0.13-0.27,0.23-0.36c0.1-0.08,0.23-0.13,0.39-0.13
				c0.12,0,0.22,0.02,0.3,0.07c0.09,0.05,0.16,0.11,0.22,0.2c0.06,0.09,0.1,0.19,0.13,0.32s0.05,0.29,0.05,0.51
				c0,0.25-0.03,0.46-0.08,0.61c-0.05,0.16-0.13,0.27-0.23,0.36c-0.1,0.08-0.23,0.13-0.39,0.13c-0.21,0-0.37-0.07-0.49-0.22
				C131.55,103.98,131.48,103.69,131.48,103.29z M131.75,103.29c0,0.35,0.04,0.59,0.12,0.7c0.08,0.12,0.18,0.18,0.3,0.18
				s0.22-0.06,0.31-0.18c0.08-0.12,0.12-0.35,0.12-0.7c0-0.35-0.04-0.59-0.12-0.7c-0.08-0.12-0.18-0.17-0.31-0.17
				c-0.12,0-0.22,0.05-0.29,0.15C131.79,102.7,131.75,102.94,131.75,103.29z"/>
			<path d="M133.29,103.09v-0.3h0.3v0.3H133.29z M133.29,104.35v-0.3h0.3v0.3H133.29z"/>
			<path d="M134.08,104.35v-2.15h0.29l1.13,1.69v-1.69h0.27v2.15h-0.29l-1.13-1.69v1.69H134.08z"/>
			<path d="M136.85,104.39l0.62-2.22h0.21l-0.62,2.22H136.85z"/>
			<path d="M140.03,104.1v0.25h-1.42c0-0.06,0.01-0.12,0.03-0.18c0.04-0.1,0.09-0.19,0.17-0.29c0.08-0.09,0.19-0.2,0.35-0.33
				c0.23-0.19,0.39-0.34,0.47-0.46c0.08-0.11,0.12-0.22,0.12-0.32c0-0.1-0.04-0.19-0.11-0.26c-0.07-0.07-0.17-0.11-0.29-0.11
				c-0.13,0-0.23,0.04-0.3,0.11s-0.12,0.18-0.12,0.32l-0.27-0.03c0.02-0.2,0.09-0.36,0.21-0.46s0.28-0.16,0.49-0.16
				c0.21,0,0.37,0.06,0.49,0.17s0.18,0.26,0.18,0.42c0,0.09-0.02,0.17-0.05,0.25s-0.09,0.17-0.18,0.26
				c-0.08,0.09-0.22,0.22-0.41,0.38c-0.16,0.13-0.26,0.22-0.3,0.27c-0.04,0.05-0.08,0.1-0.11,0.14H140.03z"/>
			<path d="M140.83,104.95h-0.58v-0.22h0.32v-2.31h-0.32v-0.22h0.58V104.95z"/>
		</g>
	</g>
	<g>
		<polygon fill="none" stroke="#000000" stroke-miterlimit="10" points="90.12,90.16 117.66,90.16 111.63,84.12 96.16,84.12 		"/>
		<polygon fill="#FFFFFF" points="90.11,90.15 117.65,90.15 111.61,84.12 96.14,84.12 		"/>
		<g>
			<path d="M97.77,88.48v-2.74h0.58v0.22h-0.32v2.31h0.32v0.22H97.77z"/>
			<path d="M98.6,86.04v-0.3h0.26v0.3H98.6z M98.6,87.89v-1.56h0.26v1.56H98.6z"/>
			<path d="M100.65,86.62h-1.42v-0.25h1.42V86.62z M100.65,87.28h-1.42v-0.25h1.42V87.28z"/>
			<path d="M100.94,86.83c0-0.25,0.03-0.46,0.08-0.61c0.05-0.16,0.13-0.27,0.23-0.36c0.1-0.08,0.23-0.13,0.39-0.13
				c0.12,0,0.22,0.02,0.3,0.07c0.09,0.05,0.16,0.11,0.22,0.2c0.06,0.09,0.1,0.19,0.13,0.32c0.03,0.12,0.05,0.29,0.05,0.51
				c0,0.25-0.03,0.46-0.08,0.61c-0.05,0.16-0.13,0.27-0.23,0.36c-0.1,0.08-0.23,0.13-0.39,0.13c-0.21,0-0.37-0.07-0.49-0.22
				C101.01,87.52,100.94,87.23,100.94,86.83z M101.21,86.83c0,0.35,0.04,0.59,0.12,0.7c0.08,0.12,0.18,0.18,0.3,0.18
				s0.22-0.06,0.31-0.18c0.08-0.12,0.12-0.35,0.12-0.7c0-0.35-0.04-0.59-0.12-0.71c-0.08-0.12-0.18-0.17-0.31-0.17
				c-0.12,0-0.22,0.05-0.29,0.15C101.26,86.23,101.21,86.48,101.21,86.83z"/>
			<path d="M102.76,86.63v-0.3h0.3v0.3H102.76z M102.76,87.89v-0.3h0.3v0.3H102.76z"/>
			<path d="M103.55,87.89v-2.15h0.29l1.13,1.69v-1.69h0.27v2.15h-0.29l-1.13-1.69v1.69H103.55z"/>
			<path d="M106.32,87.92l0.62-2.22h0.21l-0.62,2.22H106.32z"/>
			<path d="M109.5,87.63v0.25h-1.42c0-0.06,0.01-0.12,0.03-0.18c0.04-0.1,0.09-0.19,0.17-0.29c0.08-0.09,0.19-0.2,0.35-0.33
				c0.23-0.19,0.39-0.34,0.47-0.46c0.08-0.11,0.12-0.22,0.12-0.32c0-0.1-0.04-0.19-0.11-0.26c-0.07-0.07-0.17-0.11-0.29-0.11
				c-0.13,0-0.23,0.04-0.3,0.11s-0.12,0.18-0.12,0.32l-0.27-0.03c0.02-0.2,0.09-0.36,0.21-0.46c0.12-0.11,0.28-0.16,0.49-0.16
				c0.21,0,0.37,0.06,0.49,0.17c0.12,0.11,0.18,0.26,0.18,0.42c0,0.09-0.02,0.17-0.05,0.25s-0.09,0.17-0.18,0.26
				c-0.08,0.09-0.22,0.22-0.41,0.38c-0.16,0.13-0.26,0.22-0.3,0.27c-0.04,0.05-0.08,0.1-0.11,0.14H109.5z"/>
			<path d="M110.29,88.48h-0.58v-0.22h0.32v-2.31h-0.32v-0.22h0.58V88.48z"/>
		</g>
		<g>
			<path d="M112.31,89.19c0-0.11,0.02-0.2,0.05-0.28c0.02-0.05,0.06-0.1,0.1-0.15c0.04-0.04,0.09-0.08,0.14-0.1
				c0.07-0.03,0.14-0.04,0.23-0.04c0.16,0,0.29,0.05,0.38,0.15c0.1,0.1,0.14,0.24,0.14,0.41c0,0.17-0.05,0.31-0.14,0.41
				c-0.09,0.1-0.22,0.15-0.38,0.15c-0.16,0-0.29-0.05-0.38-0.15C112.35,89.5,112.31,89.36,112.31,89.19z M112.53,89.18
				c0,0.12,0.03,0.21,0.08,0.28c0.06,0.06,0.13,0.09,0.21,0.09c0.09,0,0.16-0.03,0.21-0.09c0.05-0.06,0.08-0.16,0.08-0.28
				c0-0.12-0.03-0.21-0.08-0.28c-0.05-0.06-0.13-0.09-0.21-0.09c-0.09,0-0.16,0.03-0.22,0.09
				C112.56,88.97,112.53,89.06,112.53,89.18z"/>
			<path d="M113.51,89.72v-1.07h0.32l0.19,0.73l0.19-0.73h0.33v1.07h-0.2v-0.85l-0.21,0.85h-0.21l-0.21-0.85v0.85H113.51z"/>
			<path d="M114.77,89.72v-1.07h0.35c0.13,0,0.22,0.01,0.26,0.02c0.06,0.02,0.11,0.05,0.15,0.11c0.04,0.05,0.06,0.12,0.06,0.21
				c0,0.07-0.01,0.12-0.04,0.17c-0.02,0.04-0.05,0.08-0.09,0.11c-0.04,0.03-0.07,0.04-0.11,0.05c-0.05,0.01-0.13,0.01-0.23,0.01
				h-0.14v0.41H114.77z M114.98,88.83v0.3h0.12c0.09,0,0.14,0,0.17-0.02c0.03-0.01,0.05-0.03,0.07-0.05
				c0.02-0.02,0.02-0.05,0.02-0.08c0-0.04-0.01-0.07-0.03-0.1c-0.02-0.03-0.05-0.04-0.09-0.05c-0.03,0-0.08-0.01-0.16-0.01H114.98z"
				/>
		</g>
	</g>
	<g>
		<polygon fill="none" stroke="#000000" stroke-miterlimit="10" points="18.84,105.49 46.38,105.49 40.34,99.45 24.88,99.45 		"/>
		<polygon fill="#FFFFFF" points="18.83,105.49 46.37,105.49 40.33,99.45 24.86,99.45 		"/>
		<g>
			<path d="M26.49,103.82v-2.74h0.58v0.22h-0.32v2.31h0.32v0.22H26.49z"/>
			<path d="M27.32,101.38v-0.3h0.26v0.3H27.32z M27.32,103.22v-1.56h0.26v1.56H27.32z"/>
			<path d="M29.37,101.96h-1.42v-0.25h1.42V101.96z M29.37,102.61h-1.42v-0.25h1.42V102.61z"/>
			<path d="M29.66,102.16c0-0.25,0.03-0.46,0.08-0.61c0.05-0.16,0.13-0.27,0.23-0.36c0.1-0.08,0.23-0.13,0.39-0.13
				c0.12,0,0.22,0.02,0.3,0.07c0.09,0.05,0.16,0.11,0.22,0.2c0.06,0.09,0.1,0.19,0.13,0.32c0.03,0.12,0.05,0.29,0.05,0.51
				c0,0.25-0.03,0.46-0.08,0.61c-0.05,0.16-0.13,0.27-0.23,0.36c-0.1,0.08-0.23,0.13-0.39,0.13c-0.21,0-0.37-0.07-0.49-0.22
				C29.73,102.86,29.66,102.57,29.66,102.16z M29.93,102.16c0,0.35,0.04,0.59,0.12,0.7c0.08,0.12,0.18,0.18,0.3,0.18
				s0.22-0.06,0.31-0.18c0.08-0.12,0.12-0.35,0.12-0.7c0-0.35-0.04-0.59-0.12-0.71c-0.08-0.12-0.18-0.17-0.31-0.17
				c-0.12,0-0.22,0.05-0.29,0.15C29.98,101.57,29.93,101.81,29.93,102.16z"/>
			<path d="M31.48,101.96v-0.3h0.3v0.3H31.48z M31.48,103.22v-0.3h0.3v0.3H31.48z"/>
			<path d="M32.27,103.22v-2.15h0.29l1.13,1.69v-1.69h0.27v2.15h-0.29l-1.13-1.69v1.69H32.27z"/>
			<path d="M35.04,103.26l0.62-2.22h0.21l-0.62,2.22H35.04z"/>
			<path d="M38.22,102.97v0.25H36.8c0-0.06,0.01-0.12,0.03-0.18c0.04-0.1,0.09-0.19,0.17-0.29c0.08-0.09,0.19-0.2,0.35-0.33
				c0.23-0.19,0.39-0.34,0.47-0.46c0.08-0.11,0.12-0.22,0.12-0.32c0-0.1-0.04-0.19-0.11-0.26c-0.07-0.07-0.17-0.11-0.29-0.11
				c-0.13,0-0.23,0.04-0.3,0.11s-0.12,0.18-0.12,0.32l-0.27-0.03c0.02-0.2,0.09-0.36,0.21-0.46c0.12-0.11,0.28-0.16,0.49-0.16
				c0.21,0,0.37,0.06,0.49,0.17c0.12,0.11,0.18,0.26,0.18,0.42c0,0.09-0.02,0.17-0.05,0.25s-0.09,0.17-0.18,0.26
				c-0.08,0.09-0.22,0.22-0.41,0.38c-0.16,0.13-0.26,0.22-0.3,0.27c-0.04,0.05-0.08,0.1-0.11,0.14H38.22z"/>
			<path d="M39.01,103.82h-0.58v-0.22h0.32v-2.31h-0.32v-0.22h0.58V103.82z"/>
		</g>
		<g>
			<path d="M41.03,104.52c0-0.11,0.02-0.2,0.05-0.28c0.02-0.05,0.06-0.1,0.1-0.15c0.04-0.04,0.09-0.08,0.14-0.1
				c0.07-0.03,0.14-0.04,0.23-0.04c0.16,0,0.29,0.05,0.38,0.15c0.1,0.1,0.14,0.24,0.14,0.41c0,0.17-0.05,0.31-0.14,0.41
				c-0.09,0.1-0.22,0.15-0.38,0.15c-0.16,0-0.29-0.05-0.38-0.15C41.07,104.83,41.03,104.7,41.03,104.52z M41.25,104.52
				c0,0.12,0.03,0.21,0.08,0.28c0.06,0.06,0.13,0.09,0.21,0.09c0.09,0,0.16-0.03,0.21-0.09c0.05-0.06,0.08-0.16,0.08-0.28
				c0-0.12-0.03-0.21-0.08-0.28c-0.05-0.06-0.13-0.09-0.21-0.09c-0.09,0-0.16,0.03-0.22,0.09C41.28,104.3,41.25,104.39,41.25,104.52
				z"/>
			<path d="M42.23,105.05v-1.07h0.32l0.19,0.73l0.19-0.73h0.33v1.07h-0.2v-0.85l-0.21,0.85h-0.21l-0.21-0.85v0.85H42.23z"/>
			<path d="M43.49,105.05v-1.07h0.35c0.13,0,0.22,0.01,0.26,0.02c0.06,0.02,0.11,0.05,0.15,0.11c0.04,0.05,0.06,0.12,0.06,0.21
				c0,0.07-0.01,0.12-0.04,0.17c-0.02,0.04-0.05,0.08-0.09,0.11c-0.04,0.03-0.07,0.04-0.11,0.05c-0.05,0.01-0.13,0.01-0.23,0.01
				H43.7v0.41H43.49z M43.7,104.16v0.3h0.12c0.09,0,0.14,0,0.17-0.02c0.03-0.01,0.05-0.03,0.07-0.05c0.02-0.02,0.02-0.05,0.02-0.08
				c0-0.04-0.01-0.07-0.03-0.1c-0.02-0.03-0.05-0.04-0.09-0.05c-0.03,0-0.08-0.01-0.16-0.01H43.7z"/>
		</g>
	</g>
	<g>
		<path d="M7.49,74.22c0.2,0.15,0.33,0.29,0.4,0.42c0.09,0.18,0.13,0.38,0.13,0.63v2.1c0,0.22,0.06,0.41,0.19,0.55
			s0.29,0.22,0.48,0.24c0.12,0.01,0.2,0.04,0.24,0.07c0.05,0.05,0.08,0.11,0.08,0.18c0,0.07-0.03,0.13-0.08,0.18
			s-0.12,0.07-0.22,0.07c-0.31,0-0.57-0.1-0.77-0.29c-0.28-0.27-0.42-0.6-0.42-0.98v-2.11c0-0.21-0.06-0.4-0.19-0.54
			s-0.29-0.23-0.49-0.24c-0.11-0.01-0.19-0.04-0.23-0.08s-0.06-0.1-0.06-0.18c0-0.07,0.02-0.13,0.06-0.18s0.12-0.07,0.23-0.08
			c0.2-0.02,0.37-0.1,0.5-0.24s0.19-0.33,0.19-0.54v-2.11c0-0.37,0.12-0.67,0.35-0.92s0.52-0.37,0.84-0.37
			c0.09,0,0.17,0.02,0.22,0.07s0.08,0.11,0.08,0.18s-0.03,0.13-0.08,0.18c-0.04,0.04-0.12,0.06-0.24,0.08
			c-0.2,0.02-0.36,0.1-0.48,0.25s-0.19,0.32-0.19,0.54v2.11c0,0.25-0.04,0.44-0.12,0.59S7.69,74.07,7.49,74.22z"/>
		<path fill="#0000FF" d="M24.59,91.54h-0.63l-3.63-6.13v5.64h0.91c0.12,0,0.21,0.02,0.26,0.07s0.08,0.1,0.08,0.18
			c0,0.07-0.03,0.13-0.08,0.18s-0.14,0.07-0.26,0.07h-1.81c-0.12,0-0.21-0.02-0.26-0.07s-0.08-0.11-0.08-0.18
			c0-0.07,0.03-0.13,0.08-0.18s0.14-0.07,0.26-0.07h0.41v-5.87h-0.66c-0.12,0-0.2-0.02-0.25-0.07s-0.08-0.1-0.08-0.18
			s0.03-0.13,0.08-0.18s0.13-0.07,0.25-0.07h1.29l3.63,6.15v-5.65h-0.91c-0.12,0-0.2-0.02-0.25-0.07s-0.08-0.1-0.08-0.18
			s0.02-0.13,0.07-0.18s0.13-0.07,0.25-0.07H25c0.12,0,0.2,0.02,0.25,0.07s0.08,0.1,0.08,0.18s-0.03,0.13-0.08,0.18
			s-0.13,0.07-0.25,0.07h-0.42V91.54z"/>
		<path fill="#0000FF" d="M32.13,89.01c0,0.75-0.27,1.39-0.81,1.92s-1.18,0.8-1.94,0.8c-0.77,0-1.42-0.27-1.95-0.8
			s-0.8-1.17-0.8-1.92c0-0.75,0.27-1.39,0.8-1.92s1.19-0.8,1.95-0.8c0.76,0,1.41,0.27,1.94,0.8S32.13,88.26,32.13,89.01z
			 M31.63,89.01c0-0.62-0.22-1.14-0.66-1.58s-0.97-0.65-1.6-0.65s-1.16,0.22-1.6,0.65s-0.66,0.96-0.66,1.57
			c0,0.61,0.22,1.13,0.66,1.57s0.97,0.66,1.6,0.66s1.16-0.22,1.6-0.65S31.63,89.62,31.63,89.01z"/>
		<path fill="#0000FF" d="M34.99,86.46v0.74c0.34-0.35,0.65-0.59,0.93-0.72s0.59-0.2,0.94-0.2c0.38,0,0.72,0.08,1.03,0.24
			c0.22,0.12,0.42,0.31,0.59,0.58s0.27,0.55,0.27,0.83v3.1h0.42c0.12,0,0.2,0.02,0.25,0.07s0.08,0.1,0.08,0.18
			c0,0.07-0.03,0.13-0.08,0.18s-0.13,0.07-0.25,0.07h-1.32c-0.12,0-0.21-0.02-0.26-0.07s-0.08-0.11-0.08-0.18
			c0-0.07,0.03-0.13,0.08-0.18s0.14-0.07,0.26-0.07h0.41v-3.02c0-0.35-0.13-0.64-0.38-0.88s-0.59-0.36-1.02-0.36
			c-0.32,0-0.61,0.07-0.84,0.2s-0.58,0.46-1.02,0.98v3.09h0.56c0.12,0,0.2,0.02,0.25,0.07s0.08,0.1,0.08,0.18
			c0,0.07-0.03,0.13-0.08,0.18s-0.13,0.07-0.25,0.07h-1.61c-0.12,0-0.2-0.02-0.25-0.07s-0.08-0.11-0.08-0.18
			c0-0.07,0.03-0.13,0.08-0.18s0.13-0.07,0.25-0.07h0.56v-4.08h-0.42c-0.12,0-0.2-0.02-0.25-0.07s-0.08-0.11-0.08-0.18
			c0-0.07,0.03-0.13,0.08-0.18s0.13-0.07,0.25-0.07H34.99z"/>
		<path fill="#0000FF" d="M46.44,89.12h-5.02c0.09,0.64,0.35,1.15,0.8,1.54s1,0.58,1.66,0.58c0.37,0,0.75-0.06,1.15-0.18
			s0.73-0.28,0.98-0.48c0.07-0.06,0.14-0.09,0.19-0.09c0.06,0,0.12,0.02,0.16,0.07s0.07,0.11,0.07,0.17s-0.03,0.13-0.09,0.19
			c-0.19,0.2-0.52,0.38-1,0.55s-0.97,0.25-1.47,0.25c-0.84,0-1.55-0.28-2.11-0.83s-0.85-1.22-0.85-2.01c0-0.71,0.26-1.33,0.79-1.84
			s1.18-0.77,1.97-0.77c0.8,0,1.47,0.26,1.99,0.79S46.45,88.28,46.44,89.12z M45.94,88.62c-0.1-0.54-0.35-0.98-0.77-1.32
			s-0.91-0.51-1.49-0.51s-1.07,0.17-1.48,0.5s-0.67,0.78-0.77,1.33H45.94z"/>
		<path d="M50.88,86.46h0.21c0.22,0,0.41,0.08,0.56,0.23s0.23,0.34,0.23,0.56c0,0.23-0.08,0.42-0.24,0.57s-0.34,0.23-0.56,0.23
			h-0.21c-0.22,0-0.41-0.08-0.56-0.23s-0.23-0.34-0.23-0.56c0-0.23,0.08-0.42,0.24-0.57S50.66,86.46,50.88,86.46z M50.88,90.12h0.21
			c0.22,0,0.41,0.08,0.56,0.23s0.23,0.34,0.23,0.56c0,0.23-0.08,0.42-0.24,0.57s-0.34,0.23-0.56,0.23h-0.21
			c-0.22,0-0.41-0.08-0.56-0.23s-0.23-0.34-0.23-0.56c0-0.23,0.08-0.42,0.24-0.57S50.66,90.12,50.88,90.12z"/>
		<path d="M65.63,84.68v7.88h1.2c0.12,0,0.2,0.02,0.25,0.07s0.08,0.1,0.08,0.18s-0.03,0.13-0.08,0.18s-0.13,0.07-0.25,0.07h-1.69
			v-8.87h1.69c0.12,0,0.2,0.02,0.25,0.07s0.08,0.11,0.08,0.18c0,0.07-0.03,0.13-0.08,0.18s-0.13,0.07-0.25,0.07H65.63z"/>
		<path d="M86.01,89.77h1.6L85.87,93c-0.11,0.2-0.23,0.29-0.38,0.29c-0.1,0-0.18-0.03-0.25-0.1s-0.1-0.15-0.1-0.25
			c0-0.04,0.01-0.08,0.02-0.13L86.01,89.77z"/>
		<path d="M122.02,89.77h1.6L121.88,93c-0.11,0.2-0.23,0.29-0.38,0.29c-0.1,0-0.18-0.03-0.25-0.1s-0.1-0.15-0.1-0.25
			c0-0.04,0.01-0.08,0.02-0.13L122.02,89.77z"/>
		<path d="M144.36,92.56v-7.88h-1.19c-0.12,0-0.2-0.02-0.25-0.07s-0.08-0.11-0.08-0.18c0-0.07,0.03-0.13,0.08-0.18
			s0.13-0.07,0.25-0.07h1.69v8.87h-1.69c-0.12,0-0.2-0.02-0.25-0.07s-0.08-0.1-0.08-0.18c0-0.07,0.03-0.13,0.08-0.18
			s0.13-0.07,0.25-0.07H144.36z"/>
		<path d="M150.82,89.77h1.6L150.68,93c-0.11,0.2-0.23,0.29-0.38,0.29c-0.1,0-0.18-0.03-0.25-0.1s-0.1-0.15-0.1-0.25
			c0-0.04,0.01-0.08,0.02-0.13L150.82,89.77z"/>
		<path d="M50.88,100.86h0.21c0.22,0,0.41,0.08,0.56,0.23s0.23,0.34,0.23,0.56c0,0.23-0.08,0.42-0.24,0.57s-0.34,0.23-0.56,0.23
			h-0.21c-0.22,0-0.41-0.08-0.56-0.23s-0.23-0.34-0.23-0.56c0-0.23,0.08-0.42,0.24-0.57S50.66,100.86,50.88,100.86z M50.88,104.52
			h0.21c0.22,0,0.41,0.08,0.56,0.23s0.23,0.34,0.23,0.56c0,0.23-0.08,0.42-0.24,0.57s-0.34,0.23-0.56,0.23h-0.21
			c-0.22,0-0.41-0.08-0.56-0.23s-0.23-0.34-0.23-0.56c0-0.23,0.08-0.42,0.24-0.57S50.66,104.52,50.88,104.52z"/>
		<path d="M65.63,99.08v7.88h1.2c0.12,0,0.2,0.02,0.25,0.07s0.08,0.1,0.08,0.18s-0.03,0.13-0.08,0.18s-0.13,0.07-0.25,0.07h-1.69
			v-8.87h1.69c0.12,0,0.2,0.02,0.25,0.07s0.08,0.11,0.08,0.18c0,0.07-0.03,0.13-0.08,0.18s-0.13,0.07-0.25,0.07H65.63z"/>
		<path d="M93.21,104.17h1.6l-1.74,3.23c-0.11,0.2-0.23,0.29-0.38,0.29c-0.1,0-0.18-0.03-0.25-0.1s-0.1-0.15-0.1-0.25
			c0-0.04,0.01-0.08,0.02-0.13L93.21,104.17z"/>
		<path d="M114.82,104.17h1.6l-1.74,3.23c-0.11,0.2-0.23,0.29-0.38,0.29c-0.1,0-0.18-0.03-0.25-0.1s-0.1-0.15-0.1-0.25
			c0-0.04,0.01-0.08,0.02-0.13L114.82,104.17z"/>
		<path d="M151.57,106.96v-7.88h-1.19c-0.12,0-0.2-0.02-0.25-0.07s-0.08-0.11-0.08-0.18c0-0.07,0.03-0.13,0.08-0.18
			s0.13-0.07,0.25-0.07h1.69v8.87h-1.69c-0.12,0-0.2-0.02-0.25-0.07s-0.08-0.1-0.08-0.18c0-0.07,0.03-0.13,0.08-0.18
			s0.13-0.07,0.25-0.07H151.57z"/>
		<path d="M8.06,117.42c-0.2-0.15-0.33-0.29-0.4-0.42c-0.09-0.17-0.13-0.38-0.13-0.62v-2.11c0-0.22-0.06-0.4-0.19-0.54
			s-0.29-0.22-0.48-0.24c-0.12-0.01-0.21-0.04-0.24-0.07c-0.05-0.05-0.08-0.11-0.08-0.18s0.02-0.13,0.07-0.18s0.12-0.07,0.22-0.07
			c0.31,0,0.57,0.1,0.77,0.3c0.28,0.27,0.42,0.59,0.42,0.98v2.11c0,0.21,0.07,0.4,0.2,0.54s0.3,0.23,0.5,0.24
			c0.11,0.01,0.18,0.04,0.23,0.08s0.07,0.1,0.07,0.18c0,0.08-0.02,0.14-0.07,0.18s-0.12,0.07-0.23,0.08c-0.2,0.02-0.37,0.1-0.5,0.24
			s-0.19,0.33-0.19,0.54v2.11c0,0.37-0.12,0.67-0.35,0.92s-0.51,0.37-0.84,0.37c-0.1,0-0.17-0.02-0.22-0.07s-0.07-0.11-0.07-0.18
			c0-0.07,0.02-0.13,0.07-0.18c0.04-0.04,0.12-0.06,0.25-0.07c0.2-0.02,0.36-0.1,0.48-0.25s0.19-0.33,0.19-0.54v-2.1
			c0-0.25,0.04-0.45,0.12-0.6S7.86,117.57,8.06,117.42z"/>
	</g>
</g>
<g>
	<g>
		<polygon fill="#FFFFFF" stroke="#000000" stroke-width="0.5" stroke-miterlimit="10" points="23.82,221.96 26.13,219.65 
			38.17,219.65 40.48,221.96 40.48,224.28 38.17,226.59 26.13,226.59 23.82,224.28 		"/>
		<g>
			<path d="M28.8,222.3v0.55c0.1-0.13,0.22-0.2,0.36-0.2c0.12,0,0.23,0.04,0.31,0.13c0.09,0.09,0.13,0.2,0.13,0.32
				c0,0.13-0.04,0.24-0.13,0.33c-0.09,0.09-0.19,0.13-0.31,0.13c-0.14,0-0.27-0.06-0.36-0.2v0.16h-0.2c-0.02,0-0.03,0-0.04-0.01
				c-0.01-0.01-0.01-0.02-0.01-0.03c0-0.01,0-0.02,0.01-0.03c0.01-0.01,0.02-0.01,0.04-0.01h0.11v-1.07h-0.11
				c-0.02,0-0.03,0-0.04-0.01c-0.01-0.01-0.01-0.02-0.01-0.03c0-0.01,0-0.02,0.01-0.03c0.01-0.01,0.02-0.01,0.04-0.01H28.8z
				 M29.52,223.12c0-0.11-0.04-0.19-0.11-0.27c-0.07-0.07-0.16-0.11-0.25-0.11c-0.1,0-0.18,0.04-0.25,0.11
				c-0.07,0.07-0.11,0.16-0.11,0.27c0,0.1,0.04,0.19,0.11,0.27c0.07,0.07,0.16,0.11,0.25,0.11c0.1,0,0.18-0.04,0.25-0.11
				C29.49,223.31,29.52,223.22,29.52,223.12z"/>
			<path d="M32,222.85h-0.91c-0.02,0-0.03,0-0.04-0.01c-0.01-0.01-0.01-0.02-0.01-0.03c0-0.01,0-0.02,0.01-0.03
				c0.01-0.01,0.02-0.01,0.04-0.01H32c0.02,0,0.03,0,0.04,0.01c0.01,0.01,0.01,0.02,0.01,0.03c0,0.01,0,0.02-0.01,0.03
				S32.02,222.85,32,222.85z M32,223.15h-0.91c-0.02,0-0.03,0-0.04-0.01c-0.01-0.01-0.01-0.02-0.01-0.03c0-0.01,0-0.02,0.01-0.03
				c0.01-0.01,0.02-0.01,0.04-0.01H32c0.02,0,0.03,0,0.04,0.01c0.01,0.01,0.01,0.02,0.01,0.03c0,0.01,0,0.02-0.01,0.03
				C32.03,223.15,32.02,223.15,32,223.15z"/>
			<path d="M34.4,222.91v0.12h-0.85v-0.12H34.4z"/>
			<path d="M35.43,223.54v-0.12c-0.12,0.1-0.25,0.15-0.39,0.15c-0.1,0-0.18-0.02-0.23-0.08c-0.06-0.05-0.08-0.11-0.08-0.19
				c0-0.08,0.04-0.15,0.11-0.21c0.07-0.06,0.18-0.09,0.32-0.09c0.04,0,0.08,0,0.12,0.01s0.09,0.01,0.15,0.02v-0.13
				c0-0.05-0.02-0.08-0.06-0.12c-0.04-0.03-0.11-0.05-0.19-0.05c-0.06,0-0.15,0.02-0.27,0.06c-0.02,0.01-0.03,0.01-0.04,0.01
				c-0.01,0-0.02,0-0.03-0.01c-0.01-0.01-0.01-0.02-0.01-0.03c0-0.01,0-0.02,0.01-0.03c0.01-0.01,0.05-0.02,0.11-0.04
				c0.1-0.03,0.18-0.04,0.23-0.04c0.1,0,0.19,0.03,0.25,0.08c0.06,0.05,0.09,0.11,0.09,0.18v0.55h0.11c0.02,0,0.04,0,0.04,0.01
				c0.01,0.01,0.01,0.02,0.01,0.03c0,0.01,0,0.02-0.01,0.03c-0.01,0.01-0.02,0.01-0.04,0.01H35.43z M35.43,223.13
				c-0.04-0.01-0.08-0.02-0.12-0.03c-0.04,0-0.09-0.01-0.14-0.01c-0.12,0-0.21,0.03-0.28,0.08c-0.05,0.04-0.08,0.09-0.08,0.14
				c0,0.05,0.02,0.09,0.06,0.13s0.1,0.05,0.17,0.05c0.07,0,0.14-0.01,0.2-0.04c0.06-0.03,0.12-0.07,0.19-0.14V223.13z"/>
		</g>
	</g>
	<g>
		<polygon fill="none" stroke="#000000" stroke-miterlimit="10" points="62.75,226.14 90.29,226.14 84.26,220.1 68.79,220.1 		"/>
		<polygon fill="#FFFFFF" points="62.74,226.14 90.28,226.14 84.24,220.1 68.77,220.1 		"/>
		<g>
			<path d="M70.4,224.47v-2.74h0.58v0.22h-0.32v2.31h0.32v0.22H70.4z"/>
			<path d="M71.23,222.03v-0.3h0.26v0.3H71.23z M71.23,223.87v-1.56h0.26v1.56H71.23z"/>
			<path d="M73.28,222.61h-1.42v-0.25h1.42V222.61z M73.28,223.26h-1.42v-0.25h1.42V223.26z"/>
			<path d="M73.57,222.81c0-0.25,0.03-0.46,0.08-0.61c0.05-0.16,0.13-0.27,0.23-0.36c0.1-0.08,0.23-0.13,0.39-0.13
				c0.12,0,0.22,0.02,0.3,0.07c0.09,0.05,0.16,0.11,0.22,0.2c0.06,0.09,0.1,0.19,0.13,0.32c0.03,0.12,0.05,0.29,0.05,0.51
				c0,0.25-0.03,0.46-0.08,0.61c-0.05,0.16-0.13,0.27-0.23,0.36c-0.1,0.08-0.23,0.13-0.39,0.13c-0.21,0-0.37-0.07-0.49-0.22
				C73.64,223.51,73.57,223.22,73.57,222.81z M73.84,222.81c0,0.35,0.04,0.59,0.12,0.7c0.08,0.12,0.18,0.18,0.3,0.18
				s0.22-0.06,0.31-0.18c0.08-0.12,0.12-0.35,0.12-0.7c0-0.35-0.04-0.59-0.12-0.71c-0.08-0.12-0.18-0.17-0.31-0.17
				c-0.12,0-0.22,0.05-0.29,0.15C73.89,222.22,73.84,222.46,73.84,222.81z"/>
			<path d="M75.39,222.61v-0.3h0.3v0.3H75.39z M75.39,223.87v-0.3h0.3v0.3H75.39z"/>
			<path d="M76.18,223.87v-2.15h0.29l1.13,1.69v-1.69h0.27v2.15h-0.29l-1.13-1.69v1.69H76.18z"/>
			<path d="M78.95,223.91l0.62-2.22h0.21l-0.62,2.22H78.95z"/>
			<path d="M82.13,223.62v0.25h-1.42c0-0.06,0.01-0.12,0.03-0.18c0.04-0.1,0.09-0.19,0.17-0.29c0.08-0.09,0.19-0.2,0.35-0.33
				c0.23-0.19,0.39-0.34,0.47-0.46c0.08-0.11,0.12-0.22,0.12-0.32c0-0.1-0.04-0.19-0.11-0.26c-0.07-0.07-0.17-0.11-0.29-0.11
				c-0.13,0-0.23,0.04-0.3,0.11s-0.12,0.18-0.12,0.32l-0.27-0.03c0.02-0.2,0.09-0.36,0.21-0.46c0.12-0.11,0.28-0.16,0.49-0.16
				c0.21,0,0.37,0.06,0.49,0.17c0.12,0.11,0.18,0.26,0.18,0.42c0,0.09-0.02,0.17-0.05,0.25s-0.09,0.17-0.18,0.26
				c-0.08,0.09-0.22,0.22-0.41,0.38c-0.16,0.13-0.26,0.22-0.3,0.27c-0.04,0.05-0.08,0.1-0.11,0.14H82.13z"/>
			<path d="M82.92,224.47h-0.58v-0.22h0.32v-2.31h-0.32v-0.22h0.58V224.47z"/>
		</g>
		<g>
			<path d="M84.94,225.17c0-0.11,0.02-0.2,0.05-0.28c0.02-0.05,0.06-0.1,0.1-0.15c0.04-0.04,0.09-0.08,0.14-0.1
				c0.07-0.03,0.14-0.04,0.23-0.04c0.16,0,0.29,0.05,0.38,0.15c0.1,0.1,0.14,0.24,0.14,0.41c0,0.17-0.05,0.31-0.14,0.41
				c-0.09,0.1-0.22,0.15-0.38,0.15c-0.16,0-0.29-0.05-0.38-0.15C84.98,225.48,84.94,225.35,84.94,225.17z M85.16,225.17
				c0,0.12,0.03,0.21,0.08,0.28c0.06,0.06,0.13,0.09,0.21,0.09c0.09,0,0.16-0.03,0.21-0.09c0.05-0.06,0.08-0.16,0.08-0.28
				c0-0.12-0.03-0.21-0.08-0.28c-0.05-0.06-0.13-0.09-0.21-0.09c-0.09,0-0.16,0.03-0.22,0.09
				C85.19,224.95,85.16,225.04,85.16,225.17z"/>
			<path d="M86.14,225.7v-1.07h0.32l0.19,0.73l0.19-0.73h0.33v1.07h-0.2v-0.85l-0.21,0.85h-0.21l-0.21-0.85v0.85H86.14z"/>
			<path d="M87.4,225.7v-1.07h0.35c0.13,0,0.22,0.01,0.26,0.02c0.06,0.02,0.11,0.05,0.15,0.11c0.04,0.05,0.06,0.12,0.06,0.21
				c0,0.07-0.01,0.12-0.04,0.17c-0.02,0.04-0.05,0.08-0.09,0.11c-0.04,0.03-0.07,0.04-0.11,0.05c-0.05,0.01-0.13,0.01-0.23,0.01
				h-0.14v0.41H87.4z M87.61,224.81v0.3h0.12c0.09,0,0.14,0,0.17-0.02c0.03-0.01,0.05-0.03,0.07-0.05c0.02-0.02,0.02-0.05,0.02-0.08
				c0-0.04-0.01-0.07-0.03-0.1c-0.02-0.03-0.05-0.04-0.09-0.05c-0.03,0-0.08-0.01-0.16-0.01H87.61z"/>
		</g>
	</g>
	<g>
		<polygon fill="none" stroke="#000000" stroke-miterlimit="10" points="18.38,211.49 45.92,211.49 39.88,205.46 24.42,205.46 		"/>
		<polygon fill="#FFFFFF" points="18.37,211.49 45.91,211.49 39.87,205.45 24.4,205.45 		"/>
		<g>
			<path d="M26.03,209.82v-2.74h0.58v0.22h-0.32v2.31h0.32v0.22H26.03z"/>
			<path d="M26.86,207.38v-0.3h0.26v0.3H26.86z M26.86,209.22v-1.56h0.26v1.56H26.86z"/>
			<path d="M28.91,207.96h-1.42v-0.25h1.42V207.96z M28.91,208.61h-1.42v-0.25h1.42V208.61z"/>
			<path d="M29.2,208.16c0-0.25,0.03-0.46,0.08-0.61c0.05-0.16,0.13-0.27,0.23-0.36c0.1-0.08,0.23-0.13,0.39-0.13
				c0.12,0,0.22,0.02,0.3,0.07c0.09,0.05,0.16,0.11,0.22,0.2c0.06,0.09,0.1,0.19,0.13,0.32c0.03,0.12,0.05,0.29,0.05,0.51
				c0,0.25-0.03,0.46-0.08,0.61c-0.05,0.16-0.13,0.27-0.23,0.36c-0.1,0.08-0.23,0.13-0.39,0.13c-0.21,0-0.37-0.07-0.49-0.22
				C29.27,208.86,29.2,208.57,29.2,208.16z M29.47,208.16c0,0.35,0.04,0.59,0.12,0.7c0.08,0.12,0.18,0.18,0.3,0.18
				s0.22-0.06,0.31-0.18c0.08-0.12,0.12-0.35,0.12-0.7c0-0.35-0.04-0.59-0.12-0.71c-0.08-0.12-0.18-0.17-0.31-0.17
				c-0.12,0-0.22,0.05-0.29,0.15C29.52,207.57,29.47,207.81,29.47,208.16z"/>
			<path d="M31.02,207.97v-0.3h0.3v0.3H31.02z M31.02,209.22v-0.3h0.3v0.3H31.02z"/>
			<path d="M31.81,209.22v-2.15h0.29l1.13,1.69v-1.69h0.27v2.15h-0.29l-1.13-1.69v1.69H31.81z"/>
			<path d="M34.58,209.26l0.62-2.22h0.21l-0.62,2.22H34.58z"/>
			<path d="M37.76,208.97v0.25h-1.42c0-0.06,0.01-0.12,0.03-0.18c0.04-0.1,0.09-0.19,0.17-0.29c0.08-0.09,0.19-0.2,0.35-0.33
				c0.23-0.19,0.39-0.34,0.47-0.46c0.08-0.11,0.12-0.22,0.12-0.32c0-0.1-0.04-0.19-0.11-0.26c-0.07-0.07-0.17-0.11-0.29-0.11
				c-0.13,0-0.23,0.04-0.3,0.11s-0.12,0.18-0.12,0.32l-0.27-0.03c0.02-0.2,0.09-0.36,0.21-0.46c0.12-0.11,0.28-0.16,0.49-0.16
				c0.21,0,0.37,0.06,0.49,0.17c0.12,0.11,0.18,0.26,0.18,0.42c0,0.09-0.02,0.17-0.05,0.25s-0.09,0.17-0.18,0.26
				c-0.08,0.09-0.22,0.22-0.41,0.38c-0.16,0.13-0.26,0.22-0.3,0.27c-0.04,0.05-0.08,0.1-0.11,0.14H37.76z"/>
			<path d="M38.55,209.82h-0.58v-0.22h0.32v-2.31h-0.32v-0.22h0.58V209.82z"/>
		</g>
		<g>
			<path d="M40.57,210.53c0-0.11,0.02-0.2,0.05-0.28c0.02-0.05,0.06-0.1,0.1-0.15c0.04-0.04,0.09-0.08,0.14-0.1
				c0.07-0.03,0.14-0.04,0.23-0.04c0.16,0,0.29,0.05,0.38,0.15c0.1,0.1,0.14,0.24,0.14,0.41c0,0.17-0.05,0.31-0.14,0.41
				c-0.09,0.1-0.22,0.15-0.38,0.15c-0.16,0-0.29-0.05-0.38-0.15C40.61,210.83,40.57,210.7,40.57,210.53z M40.79,210.52
				c0,0.12,0.03,0.21,0.08,0.28c0.06,0.06,0.13,0.09,0.21,0.09c0.09,0,0.16-0.03,0.21-0.09c0.05-0.06,0.08-0.16,0.08-0.28
				c0-0.12-0.03-0.21-0.08-0.28c-0.05-0.06-0.13-0.09-0.21-0.09c-0.09,0-0.16,0.03-0.22,0.09C40.82,210.3,40.79,210.4,40.79,210.52z
				"/>
			<path d="M41.77,211.06v-1.07h0.32l0.19,0.73l0.19-0.73h0.33v1.07h-0.2v-0.85l-0.21,0.85h-0.21l-0.21-0.85v0.85H41.77z"/>
			<path d="M43.03,211.06v-1.07h0.35c0.13,0,0.22,0.01,0.26,0.02c0.06,0.02,0.11,0.05,0.15,0.11c0.04,0.05,0.06,0.12,0.06,0.21
				c0,0.07-0.01,0.12-0.04,0.17c-0.02,0.04-0.05,0.08-0.09,0.11c-0.04,0.03-0.07,0.04-0.11,0.05c-0.05,0.01-0.13,0.01-0.23,0.01
				h-0.14v0.41H43.03z M43.24,210.16v0.3h0.12c0.09,0,0.14,0,0.17-0.02c0.03-0.01,0.05-0.03,0.07-0.05
				c0.02-0.02,0.02-0.05,0.02-0.08c0-0.04-0.01-0.07-0.03-0.1c-0.02-0.03-0.05-0.04-0.09-0.05c-0.03,0-0.08-0.01-0.16-0.01H43.24z"
				/>
		</g>
	</g>
	<g>
		<path d="M9.44,193.73c0.2,0.15,0.33,0.29,0.4,0.42c0.09,0.18,0.13,0.38,0.13,0.63v2.1c0,0.22,0.06,0.41,0.19,0.55
			s0.29,0.22,0.48,0.24c0.12,0.01,0.2,0.04,0.24,0.07c0.05,0.05,0.08,0.11,0.08,0.18c0,0.07-0.03,0.13-0.08,0.18
			s-0.12,0.07-0.22,0.07c-0.31,0-0.57-0.1-0.77-0.29c-0.28-0.27-0.42-0.6-0.42-0.98v-2.11c0-0.21-0.06-0.4-0.19-0.54
			s-0.29-0.23-0.49-0.24c-0.11-0.01-0.19-0.04-0.23-0.08s-0.06-0.1-0.06-0.18c0-0.07,0.02-0.13,0.06-0.18s0.12-0.07,0.23-0.08
			c0.2-0.02,0.37-0.1,0.5-0.24s0.19-0.33,0.19-0.54v-2.11c0-0.37,0.12-0.67,0.35-0.92s0.52-0.37,0.84-0.37
			c0.09,0,0.17,0.02,0.22,0.07s0.08,0.11,0.08,0.18s-0.03,0.13-0.08,0.18c-0.04,0.04-0.12,0.06-0.24,0.08
			c-0.2,0.02-0.36,0.1-0.48,0.25s-0.19,0.32-0.19,0.54v2.11c0,0.25-0.04,0.44-0.12,0.59S9.64,193.58,9.44,193.73z"/>
		<path d="M52.83,205.98h0.21c0.22,0,0.41,0.08,0.56,0.23s0.23,0.34,0.23,0.56c0,0.23-0.08,0.42-0.24,0.57s-0.34,0.23-0.56,0.23
			h-0.21c-0.22,0-0.41-0.08-0.56-0.23s-0.23-0.34-0.23-0.56c0-0.23,0.08-0.42,0.24-0.57S52.61,205.98,52.83,205.98z M52.83,209.64
			h0.21c0.22,0,0.41,0.08,0.56,0.23s0.23,0.34,0.23,0.56c0,0.23-0.08,0.42-0.24,0.57s-0.34,0.23-0.56,0.23h-0.21
			c-0.22,0-0.41-0.08-0.56-0.23s-0.23-0.34-0.23-0.56c0-0.23,0.08-0.42,0.24-0.57S52.61,209.64,52.83,209.64z"/>
		<path fill="#0000FF" d="M69.74,211.05h-0.63l-3.63-6.13v5.64h0.91c0.12,0,0.21,0.02,0.26,0.07s0.08,0.1,0.08,0.18
			c0,0.07-0.03,0.13-0.08,0.18s-0.14,0.07-0.26,0.07h-1.81c-0.12,0-0.21-0.02-0.26-0.07s-0.08-0.11-0.08-0.18
			c0-0.07,0.03-0.13,0.08-0.18s0.14-0.07,0.26-0.07h0.41v-5.87h-0.66c-0.12,0-0.2-0.02-0.25-0.07s-0.08-0.1-0.08-0.18
			s0.03-0.13,0.08-0.18s0.13-0.07,0.25-0.07h1.29l3.63,6.15v-5.65h-0.91c-0.12,0-0.2-0.02-0.25-0.07s-0.08-0.1-0.08-0.18
			s0.02-0.13,0.07-0.18s0.13-0.07,0.25-0.07h1.82c0.12,0,0.2,0.02,0.25,0.07s0.08,0.1,0.08,0.18s-0.03,0.13-0.08,0.18
			s-0.13,0.07-0.25,0.07h-0.42V211.05z"/>
		<path fill="#0000FF" d="M77.28,208.53c0,0.75-0.27,1.39-0.81,1.92s-1.18,0.8-1.94,0.8c-0.77,0-1.42-0.27-1.95-0.8
			s-0.8-1.17-0.8-1.92c0-0.75,0.27-1.39,0.8-1.92s1.19-0.8,1.95-0.8c0.76,0,1.41,0.27,1.94,0.8S77.28,207.77,77.28,208.53z
			 M76.78,208.53c0-0.62-0.22-1.14-0.66-1.58s-0.97-0.65-1.6-0.65s-1.16,0.22-1.6,0.65s-0.66,0.96-0.66,1.57
			c0,0.61,0.22,1.13,0.66,1.57s0.97,0.66,1.6,0.66s1.16-0.22,1.6-0.65S76.78,209.14,76.78,208.53z"/>
		<path fill="#0000FF" d="M80.14,205.98v0.74c0.34-0.35,0.65-0.59,0.93-0.72s0.59-0.2,0.94-0.2c0.38,0,0.72,0.08,1.03,0.24
			c0.22,0.12,0.42,0.31,0.59,0.58s0.27,0.55,0.27,0.83v3.1h0.42c0.12,0,0.2,0.02,0.25,0.07s0.08,0.1,0.08,0.18
			c0,0.07-0.03,0.13-0.08,0.18s-0.13,0.07-0.25,0.07H83c-0.12,0-0.21-0.02-0.26-0.07s-0.08-0.11-0.08-0.18
			c0-0.07,0.03-0.13,0.08-0.18s0.14-0.07,0.26-0.07h0.41v-3.02c0-0.35-0.13-0.64-0.38-0.88s-0.59-0.36-1.02-0.36
			c-0.32,0-0.61,0.07-0.84,0.2s-0.58,0.46-1.02,0.98v3.09h0.56c0.12,0,0.2,0.02,0.25,0.07s0.08,0.1,0.08,0.18
			c0,0.07-0.03,0.13-0.08,0.18s-0.13,0.07-0.25,0.07h-1.61c-0.12,0-0.2-0.02-0.25-0.07s-0.08-0.11-0.08-0.18
			c0-0.07,0.03-0.13,0.08-0.18s0.13-0.07,0.25-0.07h0.56v-4.08h-0.42c-0.12,0-0.2-0.02-0.25-0.07s-0.08-0.11-0.08-0.18
			c0-0.07,0.03-0.13,0.08-0.18s0.13-0.07,0.25-0.07H80.14z"/>
		<path fill="#0000FF" d="M91.6,208.63h-5.02c0.09,0.64,0.35,1.15,0.8,1.54s1,0.58,1.66,0.58c0.37,0,0.75-0.06,1.15-0.18
			s0.73-0.28,0.98-0.48c0.07-0.06,0.14-0.09,0.19-0.09c0.06,0,0.12,0.02,0.16,0.07s0.07,0.11,0.07,0.17s-0.03,0.13-0.09,0.19
			c-0.19,0.2-0.52,0.38-1,0.55s-0.97,0.25-1.47,0.25c-0.84,0-1.55-0.28-2.11-0.83s-0.85-1.22-0.85-2.01c0-0.71,0.26-1.33,0.79-1.84
			s1.18-0.77,1.97-0.77c0.8,0,1.47,0.26,1.99,0.79S91.6,207.79,91.6,208.63z M91.1,208.13c-0.1-0.54-0.35-0.98-0.77-1.32
			s-0.91-0.51-1.49-0.51s-1.07,0.17-1.48,0.5s-0.67,0.78-0.77,1.33H91.1z"/>
		<path d="M95.16,209.28h1.6l-1.74,3.23c-0.11,0.2-0.23,0.29-0.38,0.29c-0.1,0-0.18-0.03-0.25-0.1s-0.1-0.15-0.1-0.25
			c0-0.04,0.01-0.08,0.02-0.13L95.16,209.28z"/>
		<path d="M52.83,220.38h0.21c0.22,0,0.41,0.08,0.56,0.23s0.23,0.34,0.23,0.56c0,0.23-0.08,0.42-0.24,0.57s-0.34,0.23-0.56,0.23
			h-0.21c-0.22,0-0.41-0.08-0.56-0.23s-0.23-0.34-0.23-0.56c0-0.23,0.08-0.42,0.24-0.57S52.61,220.38,52.83,220.38z M52.83,224.04
			h0.21c0.22,0,0.41,0.08,0.56,0.23s0.23,0.34,0.23,0.56c0,0.23-0.08,0.42-0.24,0.57s-0.34,0.23-0.56,0.23h-0.21
			c-0.22,0-0.41-0.08-0.56-0.23s-0.23-0.34-0.23-0.56c0-0.23,0.08-0.42,0.24-0.57S52.61,224.04,52.83,224.04z"/>
		<path d="M95.16,223.68h1.6l-1.74,3.23c-0.11,0.2-0.23,0.29-0.38,0.29c-0.1,0-0.18-0.03-0.25-0.1s-0.1-0.15-0.1-0.25
			c0-0.04,0.01-0.08,0.02-0.13L95.16,223.68z"/>
		<path d="M24.02,238.44h0.21c0.22,0,0.41,0.08,0.56,0.23s0.23,0.34,0.23,0.56c0,0.23-0.08,0.42-0.24,0.57s-0.34,0.23-0.56,0.23
			h-0.21c-0.22,0-0.41-0.08-0.56-0.23s-0.23-0.34-0.23-0.56c0-0.23,0.08-0.42,0.24-0.57S23.81,238.44,24.02,238.44z"/>
		<path d="M31.22,238.44h0.21c0.22,0,0.41,0.08,0.56,0.23c0.16,0.15,0.23,0.34,0.23,0.56c0,0.23-0.08,0.42-0.24,0.57
			c-0.16,0.15-0.34,0.23-0.56,0.23h-0.21c-0.22,0-0.41-0.08-0.56-0.23s-0.23-0.34-0.23-0.56c0-0.23,0.08-0.42,0.24-0.57
			S31.01,238.44,31.22,238.44z"/>
		<path d="M38.42,238.44h0.21c0.22,0,0.41,0.08,0.56,0.23s0.23,0.34,0.23,0.56c0,0.23-0.08,0.42-0.24,0.57s-0.34,0.23-0.56,0.23
			h-0.21c-0.22,0-0.41-0.08-0.56-0.23s-0.23-0.34-0.23-0.56c0-0.23,0.08-0.42,0.24-0.57S38.21,238.44,38.42,238.44z"/>
		<path d="M10.01,251.33c-0.2-0.15-0.33-0.29-0.4-0.42c-0.09-0.17-0.13-0.38-0.13-0.62v-2.11c0-0.22-0.06-0.4-0.19-0.54
			S9,247.41,8.8,247.4c-0.12-0.01-0.21-0.04-0.24-0.07c-0.05-0.05-0.08-0.11-0.08-0.18s0.02-0.13,0.07-0.18s0.12-0.07,0.22-0.07
			c0.31,0,0.57,0.1,0.77,0.3c0.28,0.27,0.42,0.59,0.42,0.98v2.11c0,0.21,0.07,0.4,0.2,0.54s0.3,0.23,0.5,0.24
			c0.11,0.01,0.18,0.04,0.23,0.08s0.07,0.1,0.07,0.18c0,0.08-0.02,0.14-0.07,0.18s-0.12,0.07-0.23,0.08c-0.2,0.02-0.37,0.1-0.5,0.24
			s-0.19,0.33-0.19,0.54v2.11c0,0.37-0.12,0.67-0.35,0.92s-0.51,0.37-0.84,0.37c-0.1,0-0.17-0.02-0.22-0.07s-0.07-0.11-0.07-0.18
			c0-0.07,0.02-0.13,0.07-0.18c0.04-0.04,0.12-0.06,0.25-0.07c0.2-0.02,0.36-0.1,0.48-0.25s0.19-0.33,0.19-0.54v-2.1
			c0-0.25,0.04-0.45,0.12-0.6S9.81,251.48,10.01,251.33z"/>
	</g>
</g>
<g>
	<path d="M8.87,45.31c0-0.08,0.02-0.13,0.05-0.16s0.07-0.05,0.12-0.05c0.05,0,0.09,0.02,0.12,0.05s0.05,0.09,0.05,0.17v0.56
		c0,0.08-0.02,0.13-0.05,0.17S9.08,46.1,9.03,46.1c-0.04,0-0.08-0.01-0.11-0.04s-0.05-0.08-0.05-0.14c-0.02-0.16-0.1-0.29-0.24-0.39
		c-0.21-0.15-0.5-0.22-0.85-0.22c-0.37,0-0.65,0.07-0.86,0.22c-0.15,0.11-0.23,0.24-0.23,0.38c0,0.16,0.09,0.29,0.27,0.39
		c0.12,0.07,0.36,0.13,0.71,0.17c0.46,0.05,0.77,0.11,0.95,0.17c0.25,0.09,0.44,0.22,0.56,0.38s0.19,0.34,0.19,0.52
		c0,0.28-0.13,0.53-0.4,0.74s-0.66,0.33-1.18,0.33s-0.94-0.13-1.27-0.39c0,0.09,0,0.15-0.02,0.17s-0.03,0.05-0.06,0.07
		s-0.06,0.03-0.09,0.03c-0.05,0-0.09-0.02-0.12-0.05s-0.05-0.09-0.05-0.17v-0.68c0-0.08,0.01-0.13,0.04-0.17s0.07-0.05,0.12-0.05
		c0.05,0,0.09,0.02,0.12,0.05s0.05,0.08,0.05,0.13c0,0.12,0.03,0.22,0.09,0.3c0.09,0.12,0.24,0.23,0.44,0.31s0.44,0.12,0.73,0.12
		c0.43,0,0.75-0.08,0.95-0.24s0.31-0.33,0.31-0.5c0-0.2-0.11-0.37-0.32-0.49c-0.21-0.12-0.52-0.2-0.93-0.25s-0.7-0.1-0.88-0.16
		s-0.32-0.17-0.41-0.3s-0.15-0.28-0.15-0.44c0-0.28,0.14-0.5,0.41-0.67s0.61-0.25,0.99-0.25C8.22,44.98,8.58,45.09,8.87,45.31z"/>
	<path d="M11.91,45.09h1.78c0.08,0,0.13,0.02,0.17,0.05s0.05,0.07,0.05,0.12c0,0.05-0.02,0.09-0.05,0.12s-0.09,0.05-0.17,0.05h-1.78
		v2.18c0,0.19,0.08,0.35,0.23,0.48s0.38,0.19,0.67,0.19c0.22,0,0.46-0.03,0.72-0.1s0.46-0.14,0.6-0.22
		c0.05-0.03,0.09-0.05,0.13-0.05c0.04,0,0.08,0.02,0.11,0.05s0.05,0.07,0.05,0.12c0,0.04-0.02,0.08-0.05,0.11
		c-0.08,0.09-0.29,0.18-0.61,0.28s-0.63,0.15-0.92,0.15c-0.38,0-0.69-0.09-0.91-0.27s-0.34-0.42-0.34-0.73v-2.18h-0.61
		c-0.08,0-0.13-0.02-0.17-0.05s-0.05-0.07-0.05-0.12c0-0.05,0.02-0.09,0.05-0.12s0.09-0.05,0.17-0.05h0.61v-0.97
		c0-0.08,0.02-0.13,0.05-0.17s0.07-0.05,0.12-0.05c0.05,0,0.09,0.02,0.12,0.05s0.05,0.09,0.05,0.17V45.09z"/>
	<path d="M16.99,45.09v0.83c0.43-0.39,0.75-0.63,0.96-0.74s0.41-0.17,0.59-0.17c0.2,0,0.38,0.07,0.54,0.2s0.25,0.23,0.25,0.3
		c0,0.05-0.02,0.09-0.05,0.12s-0.07,0.05-0.12,0.05c-0.03,0-0.05,0-0.07-0.01s-0.05-0.04-0.1-0.09c-0.09-0.09-0.17-0.15-0.24-0.19
		s-0.13-0.05-0.2-0.05c-0.14,0-0.32,0.06-0.52,0.17s-0.55,0.39-1.05,0.84v1.8h1.45c0.08,0,0.14,0.01,0.17,0.04s0.05,0.07,0.05,0.12
		c0,0.05-0.02,0.09-0.05,0.12s-0.09,0.05-0.17,0.05h-2.57c-0.08,0-0.13-0.01-0.17-0.04s-0.05-0.07-0.05-0.12
		c0-0.04,0.02-0.08,0.05-0.11s0.09-0.04,0.17-0.04h0.79v-2.73h-0.61c-0.08,0-0.13-0.02-0.17-0.05s-0.05-0.07-0.05-0.12
		c0-0.05,0.02-0.09,0.05-0.12s0.09-0.05,0.17-0.05H16.99z"/>
	<path d="M23.96,46.86h-3.34c0.06,0.42,0.24,0.77,0.53,1.03s0.67,0.39,1.11,0.39c0.25,0,0.5-0.04,0.77-0.12s0.49-0.19,0.66-0.32
		c0.05-0.04,0.09-0.06,0.13-0.06c0.04,0,0.08,0.02,0.11,0.05s0.05,0.07,0.05,0.12s-0.02,0.09-0.06,0.13
		c-0.12,0.13-0.35,0.25-0.67,0.37s-0.65,0.17-0.98,0.17c-0.56,0-1.03-0.18-1.41-0.55s-0.56-0.81-0.56-1.34
		c0-0.48,0.18-0.89,0.53-1.23s0.79-0.51,1.31-0.51c0.54,0,0.98,0.17,1.32,0.53S23.97,46.31,23.96,46.86z M23.63,46.53
		c-0.07-0.36-0.24-0.66-0.51-0.88s-0.61-0.34-0.99-0.34s-0.71,0.11-0.99,0.34s-0.45,0.52-0.52,0.89H23.63z"/>
	<path d="M28.76,46.86h-3.34c0.06,0.42,0.24,0.77,0.53,1.03s0.67,0.39,1.11,0.39c0.25,0,0.5-0.04,0.77-0.12s0.49-0.19,0.66-0.32
		c0.05-0.04,0.09-0.06,0.13-0.06c0.04,0,0.08,0.02,0.11,0.05s0.05,0.07,0.05,0.12s-0.02,0.09-0.06,0.13
		c-0.12,0.13-0.35,0.25-0.67,0.37s-0.65,0.17-0.98,0.17c-0.56,0-1.03-0.18-1.41-0.55s-0.56-0.81-0.56-1.34
		c0-0.48,0.18-0.89,0.53-1.23s0.79-0.51,1.31-0.51c0.54,0,0.98,0.17,1.32,0.53S28.77,46.31,28.76,46.86z M28.43,46.53
		c-0.07-0.36-0.24-0.66-0.51-0.88s-0.61-0.34-0.99-0.34s-0.71,0.11-0.99,0.34s-0.45,0.52-0.52,0.89H28.43z"/>
	<path d="M38.38,45.76H34.8c-0.08,0-0.13-0.02-0.17-0.05s-0.05-0.07-0.05-0.12c0-0.05,0.02-0.09,0.05-0.12s0.09-0.05,0.17-0.05h3.58
		c0.08,0,0.13,0.02,0.17,0.05s0.05,0.07,0.05,0.12c0,0.05-0.02,0.09-0.05,0.12S38.46,45.76,38.38,45.76z M38.38,46.94H34.8
		c-0.08,0-0.13-0.01-0.17-0.04s-0.05-0.07-0.05-0.12s0.02-0.09,0.05-0.12s0.09-0.04,0.17-0.04h3.58c0.08,0,0.13,0.01,0.17,0.04
		s0.05,0.07,0.05,0.12s-0.02,0.09-0.05,0.12S38.46,46.94,38.38,46.94z"/>
	<path d="M47.28,45.31c0-0.08,0.02-0.13,0.05-0.16s0.07-0.05,0.12-0.05c0.05,0,0.09,0.02,0.12,0.05s0.05,0.09,0.05,0.17v0.56
		c0,0.08-0.02,0.13-0.05,0.17s-0.07,0.05-0.12,0.05c-0.04,0-0.08-0.01-0.11-0.04s-0.05-0.08-0.05-0.14
		c-0.02-0.16-0.1-0.29-0.24-0.39c-0.21-0.15-0.5-0.22-0.85-0.22c-0.37,0-0.65,0.07-0.86,0.22c-0.15,0.11-0.23,0.24-0.23,0.38
		c0,0.16,0.09,0.29,0.27,0.39c0.12,0.07,0.36,0.13,0.71,0.17c0.46,0.05,0.77,0.11,0.95,0.17c0.25,0.09,0.44,0.22,0.56,0.38
		s0.19,0.34,0.19,0.52c0,0.28-0.13,0.53-0.4,0.74s-0.66,0.33-1.18,0.33s-0.94-0.13-1.27-0.39c0,0.09,0,0.15-0.02,0.17
		s-0.03,0.05-0.06,0.07s-0.06,0.03-0.09,0.03c-0.05,0-0.09-0.02-0.12-0.05s-0.05-0.09-0.05-0.17v-0.68c0-0.08,0.01-0.13,0.04-0.17
		s0.07-0.05,0.12-0.05c0.05,0,0.09,0.02,0.12,0.05s0.05,0.08,0.05,0.13c0,0.12,0.03,0.22,0.09,0.3c0.09,0.12,0.24,0.23,0.44,0.31
		s0.44,0.12,0.73,0.12c0.43,0,0.75-0.08,0.95-0.24s0.31-0.33,0.31-0.5c0-0.2-0.11-0.37-0.32-0.49c-0.21-0.12-0.52-0.2-0.93-0.25
		s-0.7-0.1-0.88-0.16s-0.32-0.17-0.41-0.3s-0.15-0.28-0.15-0.44c0-0.28,0.14-0.5,0.41-0.67s0.61-0.25,0.99-0.25
		C46.62,44.98,46.99,45.09,47.28,45.31z"/>
	<path d="M50.32,45.09h1.78c0.08,0,0.13,0.02,0.17,0.05s0.05,0.07,0.05,0.12c0,0.05-0.02,0.09-0.05,0.12s-0.09,0.05-0.17,0.05h-1.78
		v2.18c0,0.19,0.08,0.35,0.23,0.48s0.38,0.19,0.67,0.19c0.22,0,0.46-0.03,0.72-0.1s0.46-0.14,0.6-0.22
		c0.05-0.03,0.09-0.05,0.13-0.05c0.04,0,0.08,0.02,0.11,0.05s0.05,0.07,0.05,0.12c0,0.04-0.02,0.08-0.05,0.11
		c-0.08,0.09-0.29,0.18-0.61,0.28s-0.63,0.15-0.92,0.15c-0.38,0-0.69-0.09-0.91-0.27s-0.34-0.42-0.34-0.73v-2.18h-0.61
		c-0.08,0-0.13-0.02-0.17-0.05s-0.05-0.07-0.05-0.12c0-0.05,0.02-0.09,0.05-0.12s0.09-0.05,0.17-0.05h0.61v-0.97
		c0-0.08,0.02-0.13,0.05-0.17s0.07-0.05,0.12-0.05c0.05,0,0.09,0.02,0.12,0.05s0.05,0.09,0.05,0.17V45.09z"/>
	<path d="M56.74,48.48V48c-0.48,0.4-0.99,0.6-1.53,0.6c-0.39,0-0.7-0.1-0.92-0.3s-0.33-0.44-0.33-0.73c0-0.32,0.15-0.59,0.44-0.83
		s0.72-0.36,1.28-0.36c0.15,0,0.32,0.01,0.49,0.03s0.37,0.05,0.57,0.09v-0.53c0-0.18-0.08-0.34-0.25-0.47s-0.42-0.2-0.75-0.2
		c-0.25,0-0.61,0.07-1.07,0.22c-0.08,0.03-0.14,0.04-0.16,0.04c-0.04,0-0.08-0.02-0.11-0.05s-0.04-0.07-0.04-0.12
		c0-0.04,0.01-0.08,0.04-0.11c0.04-0.04,0.18-0.09,0.44-0.16c0.41-0.11,0.71-0.16,0.92-0.16c0.41,0,0.74,0.1,0.97,0.31
		s0.35,0.44,0.35,0.69v2.17h0.44c0.08,0,0.14,0.01,0.17,0.04s0.05,0.07,0.05,0.12c0,0.05-0.02,0.09-0.05,0.12s-0.09,0.05-0.17,0.05
		H56.74z M56.74,46.84c-0.15-0.04-0.32-0.08-0.49-0.1s-0.35-0.03-0.54-0.03c-0.48,0-0.85,0.1-1.12,0.31c-0.2,0.15-0.3,0.34-0.3,0.55
		c0,0.2,0.08,0.36,0.23,0.5s0.38,0.2,0.68,0.2c0.28,0,0.55-0.06,0.79-0.17s0.49-0.29,0.75-0.54V46.84z"/>
	<path d="M59.92,45.09h1.78c0.08,0,0.13,0.02,0.17,0.05s0.05,0.07,0.05,0.12c0,0.05-0.02,0.09-0.05,0.12s-0.09,0.05-0.17,0.05h-1.78
		v2.18c0,0.19,0.08,0.35,0.23,0.48s0.38,0.19,0.67,0.19c0.22,0,0.46-0.03,0.72-0.1s0.46-0.14,0.6-0.22
		c0.05-0.03,0.09-0.05,0.13-0.05c0.04,0,0.08,0.02,0.11,0.05s0.05,0.07,0.05,0.12c0,0.04-0.02,0.08-0.05,0.11
		c-0.08,0.09-0.29,0.18-0.61,0.28s-0.63,0.15-0.92,0.15c-0.38,0-0.69-0.09-0.91-0.27s-0.34-0.42-0.34-0.73v-2.18h-0.61
		c-0.08,0-0.13-0.02-0.17-0.05s-0.05-0.07-0.05-0.12c0-0.05,0.02-0.09,0.05-0.12s0.09-0.05,0.17-0.05h0.61v-0.97
		c0-0.08,0.02-0.13,0.05-0.17s0.07-0.05,0.12-0.05c0.05,0,0.09,0.02,0.12,0.05s0.05,0.09,0.05,0.17V45.09z"/>
	<path d="M67.17,46.86h-3.34c0.06,0.42,0.24,0.77,0.53,1.03s0.67,0.39,1.11,0.39c0.25,0,0.5-0.04,0.77-0.12s0.49-0.19,0.66-0.32
		c0.05-0.04,0.09-0.06,0.13-0.06c0.04,0,0.08,0.02,0.11,0.05s0.05,0.07,0.05,0.12s-0.02,0.09-0.06,0.13
		c-0.12,0.13-0.35,0.25-0.67,0.37s-0.65,0.17-0.98,0.17c-0.56,0-1.03-0.18-1.41-0.55s-0.56-0.81-0.56-1.34
		c0-0.48,0.18-0.89,0.53-1.23s0.79-0.51,1.31-0.51c0.54,0,0.98,0.17,1.32,0.53S67.17,46.31,67.17,46.86z M66.84,46.53
		c-0.07-0.36-0.24-0.66-0.51-0.88s-0.61-0.34-0.99-0.34s-0.71,0.11-0.99,0.34s-0.45,0.52-0.52,0.89H66.84z"/>
	<path d="M70.13,47.53h0.14c0.15,0,0.27,0.05,0.38,0.15s0.16,0.23,0.16,0.37c0,0.15-0.05,0.28-0.16,0.38s-0.23,0.15-0.37,0.15h-0.14
		c-0.15,0-0.27-0.05-0.38-0.15s-0.16-0.23-0.16-0.37c0-0.15,0.05-0.28,0.16-0.38S69.98,47.53,70.13,47.53z"/>
	<path d="M76.08,45.31c0-0.08,0.02-0.13,0.05-0.16s0.07-0.05,0.12-0.05c0.05,0,0.09,0.02,0.12,0.05s0.05,0.09,0.05,0.17v0.56
		c0,0.08-0.02,0.13-0.05,0.17s-0.07,0.05-0.12,0.05c-0.04,0-0.08-0.01-0.11-0.04s-0.05-0.08-0.05-0.14
		c-0.02-0.16-0.1-0.29-0.24-0.39c-0.21-0.15-0.5-0.22-0.85-0.22c-0.37,0-0.65,0.07-0.86,0.22c-0.15,0.11-0.23,0.24-0.23,0.38
		c0,0.16,0.09,0.29,0.27,0.39c0.12,0.07,0.36,0.13,0.71,0.17c0.46,0.05,0.77,0.11,0.95,0.17c0.25,0.09,0.44,0.22,0.56,0.38
		s0.19,0.34,0.19,0.52c0,0.28-0.13,0.53-0.4,0.74s-0.66,0.33-1.18,0.33s-0.94-0.13-1.27-0.39c0,0.09,0,0.15-0.02,0.17
		s-0.03,0.05-0.06,0.07s-0.06,0.03-0.09,0.03c-0.05,0-0.09-0.02-0.12-0.05s-0.05-0.09-0.05-0.17v-0.68c0-0.08,0.01-0.13,0.04-0.17
		s0.07-0.05,0.12-0.05c0.05,0,0.09,0.02,0.12,0.05s0.05,0.08,0.05,0.13c0,0.12,0.03,0.22,0.09,0.3c0.09,0.12,0.24,0.23,0.44,0.31
		s0.44,0.12,0.73,0.12c0.43,0,0.75-0.08,0.95-0.24s0.31-0.33,0.31-0.5c0-0.2-0.11-0.37-0.32-0.49c-0.21-0.12-0.52-0.2-0.93-0.25
		s-0.7-0.1-0.88-0.16s-0.32-0.17-0.41-0.3s-0.15-0.28-0.15-0.44c0-0.28,0.14-0.5,0.41-0.67s0.61-0.25,0.99-0.25
		C75.43,44.98,75.8,45.09,76.08,45.31z"/>
	<path d="M81.17,45.43v-0.11c0-0.08,0.02-0.14,0.05-0.17s0.07-0.05,0.12-0.05c0.05,0,0.09,0.02,0.12,0.05s0.05,0.09,0.05,0.17v0.74
		c0,0.08-0.02,0.14-0.05,0.17s-0.07,0.05-0.12,0.05c-0.04,0-0.08-0.01-0.11-0.04s-0.05-0.08-0.05-0.15
		c-0.02-0.18-0.14-0.36-0.37-0.53s-0.53-0.25-0.92-0.25c-0.49,0-0.86,0.15-1.11,0.46s-0.38,0.65-0.38,1.05
		c0,0.42,0.14,0.77,0.42,1.05s0.64,0.41,1.08,0.41c0.25,0,0.51-0.05,0.78-0.14s0.5-0.25,0.72-0.45c0.05-0.05,0.1-0.08,0.14-0.08
		c0.04,0,0.08,0.01,0.11,0.04s0.04,0.07,0.04,0.11c0,0.11-0.13,0.25-0.39,0.43c-0.42,0.28-0.9,0.42-1.42,0.42
		c-0.53,0-0.96-0.17-1.3-0.51s-0.51-0.76-0.51-1.28c0-0.53,0.17-0.97,0.52-1.32s0.79-0.52,1.31-0.52
		C80.4,44.98,80.83,45.13,81.17,45.43z"/>
	<path d="M86.43,46.79c0,0.5-0.18,0.93-0.54,1.28s-0.79,0.53-1.29,0.53c-0.51,0-0.94-0.18-1.3-0.53s-0.54-0.78-0.54-1.28
		c0-0.5,0.18-0.93,0.54-1.28s0.79-0.53,1.3-0.53c0.5,0,0.94,0.18,1.29,0.53S86.43,46.29,86.43,46.79z M86.1,46.79
		c0-0.41-0.15-0.76-0.44-1.05s-0.65-0.43-1.06-0.43s-0.77,0.15-1.06,0.44s-0.44,0.64-0.44,1.05c0,0.41,0.15,0.75,0.44,1.05
		s0.65,0.44,1.06,0.44s0.77-0.15,1.06-0.44S86.1,47.2,86.1,46.79z"/>
	<path d="M88.16,45.09v0.6c0.2-0.24,0.41-0.42,0.63-0.54s0.49-0.18,0.79-0.18c0.32,0,0.62,0.08,0.89,0.23s0.49,0.36,0.63,0.63
		s0.22,0.55,0.22,0.85c0,0.47-0.17,0.87-0.51,1.21s-0.75,0.5-1.24,0.5c-0.59,0-1.06-0.24-1.43-0.71v1.98h0.8
		c0.08,0,0.13,0.01,0.17,0.04s0.05,0.07,0.05,0.12c0,0.05-0.02,0.09-0.05,0.12s-0.09,0.05-0.17,0.05h-1.57
		c-0.08,0-0.13-0.01-0.17-0.04s-0.05-0.07-0.05-0.12s0.02-0.09,0.05-0.12s0.09-0.04,0.17-0.04h0.44v-4.23h-0.44
		c-0.08,0-0.13-0.02-0.17-0.05s-0.05-0.07-0.05-0.12c0-0.05,0.02-0.09,0.05-0.12s0.09-0.05,0.17-0.05H88.16z M91.01,46.68
		c0-0.38-0.14-0.7-0.41-0.97s-0.61-0.4-1.01-0.4c-0.4,0-0.74,0.14-1.01,0.41s-0.41,0.59-0.41,0.97c0,0.38,0.14,0.7,0.41,0.97
		s0.61,0.41,1.01,0.41c0.39,0,0.73-0.13,1-0.4S91.01,47.06,91.01,46.68z"/>
	<path d="M95.97,46.86h-3.34c0.06,0.42,0.24,0.77,0.53,1.03s0.67,0.39,1.11,0.39c0.25,0,0.5-0.04,0.77-0.12s0.49-0.19,0.66-0.32
		c0.05-0.04,0.09-0.06,0.13-0.06c0.04,0,0.08,0.02,0.11,0.05s0.05,0.07,0.05,0.12s-0.02,0.09-0.06,0.13
		c-0.12,0.13-0.35,0.25-0.67,0.37s-0.65,0.17-0.98,0.17c-0.56,0-1.03-0.18-1.41-0.55s-0.56-0.81-0.56-1.34
		c0-0.48,0.18-0.89,0.53-1.23s0.79-0.51,1.31-0.51c0.54,0,0.98,0.17,1.32,0.53S95.98,46.31,95.97,46.86z M95.64,46.53
		c-0.07-0.36-0.24-0.66-0.51-0.88s-0.61-0.34-0.99-0.34s-0.71,0.11-0.99,0.34s-0.45,0.52-0.52,0.89H95.64z"/>
	<path d="M101.18,50.67h-4.36c-0.08,0-0.13-0.01-0.17-0.04s-0.05-0.07-0.05-0.12s0.02-0.09,0.05-0.12s0.09-0.04,0.17-0.04h4.36
		c0.08,0,0.14,0.01,0.17,0.04s0.05,0.07,0.05,0.12s-0.02,0.09-0.05,0.12S101.26,50.67,101.18,50.67z"/>
	<path d="M103.13,45.09h1.78c0.08,0,0.13,0.02,0.17,0.05s0.05,0.07,0.05,0.12c0,0.05-0.02,0.09-0.05,0.12s-0.09,0.05-0.17,0.05
		h-1.78v2.18c0,0.19,0.08,0.35,0.23,0.48s0.38,0.19,0.67,0.19c0.22,0,0.46-0.03,0.72-0.1s0.46-0.14,0.6-0.22
		c0.05-0.03,0.09-0.05,0.13-0.05c0.04,0,0.08,0.02,0.11,0.05s0.05,0.07,0.05,0.12c0,0.04-0.02,0.08-0.05,0.11
		c-0.08,0.09-0.29,0.18-0.61,0.28s-0.63,0.15-0.92,0.15c-0.38,0-0.69-0.09-0.91-0.27s-0.34-0.42-0.34-0.73v-2.18h-0.61
		c-0.08,0-0.13-0.02-0.17-0.05s-0.05-0.07-0.05-0.12c0-0.05,0.02-0.09,0.05-0.12s0.09-0.05,0.17-0.05h0.61v-0.97
		c0-0.08,0.02-0.13,0.05-0.17s0.07-0.05,0.12-0.05c0.05,0,0.09,0.02,0.12,0.05s0.05,0.09,0.05,0.17V45.09z"/>
	<path d="M108.21,45.09v0.83c0.43-0.39,0.75-0.63,0.96-0.74s0.41-0.17,0.59-0.17c0.2,0,0.38,0.07,0.54,0.2s0.25,0.23,0.25,0.3
		c0,0.05-0.02,0.09-0.05,0.12s-0.07,0.05-0.12,0.05c-0.03,0-0.05,0-0.07-0.01s-0.05-0.04-0.1-0.09c-0.09-0.09-0.17-0.15-0.24-0.19
		s-0.13-0.05-0.2-0.05c-0.14,0-0.32,0.06-0.52,0.17s-0.55,0.39-1.05,0.84v1.8h1.45c0.08,0,0.14,0.01,0.17,0.04s0.05,0.07,0.05,0.12
		c0,0.05-0.02,0.09-0.05,0.12s-0.09,0.05-0.17,0.05h-2.57c-0.08,0-0.13-0.01-0.17-0.04s-0.05-0.07-0.05-0.12
		c0-0.04,0.02-0.08,0.05-0.11s0.09-0.04,0.17-0.04h0.79v-2.73h-0.61c-0.08,0-0.13-0.02-0.17-0.05s-0.05-0.07-0.05-0.12
		c0-0.05,0.02-0.09,0.05-0.12s0.09-0.05,0.17-0.05H108.21z"/>
	<path d="M115.18,46.86h-3.34c0.06,0.42,0.24,0.77,0.53,1.03s0.67,0.39,1.11,0.39c0.25,0,0.5-0.04,0.77-0.12s0.49-0.19,0.66-0.32
		c0.05-0.04,0.09-0.06,0.13-0.06c0.04,0,0.08,0.02,0.11,0.05s0.05,0.07,0.05,0.12s-0.02,0.09-0.06,0.13
		c-0.12,0.13-0.35,0.25-0.67,0.37s-0.65,0.17-0.98,0.17c-0.56,0-1.03-0.18-1.41-0.55s-0.56-0.81-0.56-1.34
		c0-0.48,0.18-0.89,0.53-1.23s0.79-0.51,1.31-0.51c0.54,0,0.98,0.17,1.32,0.53S115.18,46.31,115.18,46.86z M114.85,46.53
		c-0.07-0.36-0.24-0.66-0.51-0.88s-0.61-0.34-0.99-0.34s-0.71,0.11-0.99,0.34s-0.45,0.52-0.52,0.89H114.85z"/>
	<path d="M119.98,46.86h-3.34c0.06,0.42,0.24,0.77,0.53,1.03s0.67,0.39,1.11,0.39c0.25,0,0.5-0.04,0.77-0.12s0.49-0.19,0.66-0.32
		c0.05-0.04,0.09-0.06,0.13-0.06c0.04,0,0.08,0.02,0.11,0.05s0.05,0.07,0.05,0.12s-0.02,0.09-0.06,0.13
		c-0.12,0.13-0.35,0.25-0.67,0.37s-0.65,0.17-0.98,0.17c-0.56,0-1.03-0.18-1.41-0.55s-0.56-0.81-0.56-1.34
		c0-0.48,0.18-0.89,0.53-1.23s0.79-0.51,1.31-0.51c0.54,0,0.98,0.17,1.32,0.53S119.98,46.31,119.98,46.86z M119.65,46.53
		c-0.07-0.36-0.24-0.66-0.51-0.88s-0.61-0.34-0.99-0.34s-0.71,0.11-0.99,0.34s-0.45,0.52-0.52,0.89H119.65z"/>
	<path d="M122.97,46.53c0-0.3,0.04-0.62,0.12-0.95s0.23-0.72,0.45-1.16s0.38-0.71,0.48-0.8c0.03-0.03,0.07-0.04,0.1-0.04
		c0.05,0,0.09,0.02,0.12,0.05s0.05,0.07,0.05,0.11c0,0.03-0.01,0.05-0.03,0.09c-0.29,0.53-0.49,1-0.61,1.43s-0.18,0.85-0.18,1.28
		c0,0.43,0.06,0.86,0.18,1.29s0.33,0.9,0.61,1.43c0.02,0.03,0.03,0.06,0.03,0.09c0,0.04-0.02,0.08-0.05,0.12s-0.07,0.05-0.12,0.05
		c-0.04,0-0.07-0.01-0.1-0.04c-0.1-0.09-0.25-0.35-0.47-0.78s-0.37-0.81-0.45-1.14S122.97,46.87,122.97,46.53z"/>
	<path d="M127.9,46.53c0,0.3-0.04,0.62-0.12,0.95s-0.23,0.72-0.45,1.16s-0.38,0.71-0.48,0.79c-0.03,0.03-0.07,0.05-0.1,0.05
		c-0.05,0-0.09-0.02-0.12-0.05s-0.05-0.07-0.05-0.12c0-0.03,0.01-0.05,0.03-0.09c0.29-0.52,0.49-1,0.61-1.43s0.18-0.85,0.18-1.28
		c0-0.43-0.06-0.86-0.18-1.29s-0.33-0.9-0.61-1.43c-0.02-0.03-0.03-0.06-0.03-0.09c0-0.04,0.02-0.08,0.05-0.11s0.07-0.05,0.12-0.05
		c0.04,0,0.07,0.01,0.1,0.04c0.1,0.09,0.25,0.35,0.47,0.78s0.37,0.81,0.45,1.14S127.9,46.2,127.9,46.53z"/>
	<path d="M8.87,54.91c0-0.08,0.02-0.13,0.05-0.16s0.07-0.05,0.12-0.05c0.05,0,0.09,0.02,0.12,0.05s0.05,0.09,0.05,0.17v0.56
		c0,0.08-0.02,0.13-0.05,0.17S9.08,55.7,9.03,55.7c-0.04,0-0.08-0.01-0.11-0.04s-0.05-0.08-0.05-0.14c-0.02-0.16-0.1-0.29-0.24-0.39
		c-0.21-0.15-0.5-0.22-0.85-0.22c-0.37,0-0.65,0.07-0.86,0.22c-0.15,0.11-0.23,0.24-0.23,0.38c0,0.16,0.09,0.29,0.27,0.39
		c0.12,0.07,0.36,0.13,0.71,0.17c0.46,0.05,0.77,0.11,0.95,0.17c0.25,0.09,0.44,0.22,0.56,0.38s0.19,0.34,0.19,0.52
		c0,0.28-0.13,0.53-0.4,0.74S8.31,58.2,7.79,58.2s-0.94-0.13-1.27-0.39c0,0.09,0,0.15-0.02,0.17s-0.03,0.05-0.06,0.07
		s-0.06,0.03-0.09,0.03c-0.05,0-0.09-0.02-0.12-0.05s-0.05-0.09-0.05-0.17v-0.68c0-0.08,0.01-0.13,0.04-0.17s0.07-0.05,0.12-0.05
		c0.05,0,0.09,0.02,0.12,0.05s0.05,0.08,0.05,0.13c0,0.12,0.03,0.22,0.09,0.3c0.09,0.12,0.24,0.23,0.44,0.31s0.44,0.12,0.73,0.12
		c0.43,0,0.75-0.08,0.95-0.24s0.31-0.33,0.31-0.5c0-0.2-0.11-0.37-0.32-0.49c-0.21-0.12-0.52-0.2-0.93-0.25s-0.7-0.1-0.88-0.16
		s-0.32-0.17-0.41-0.3s-0.15-0.28-0.15-0.44c0-0.28,0.14-0.5,0.41-0.67s0.61-0.25,0.99-0.25C8.22,54.58,8.58,54.69,8.87,54.91z"/>
	<path d="M13.95,55.03v-0.11c0-0.08,0.02-0.14,0.05-0.17s0.07-0.05,0.12-0.05c0.05,0,0.09,0.02,0.12,0.05s0.05,0.09,0.05,0.17v0.74
		c0,0.08-0.02,0.14-0.05,0.17s-0.07,0.05-0.12,0.05c-0.04,0-0.08-0.01-0.11-0.04s-0.05-0.08-0.05-0.15
		c-0.02-0.18-0.14-0.36-0.37-0.53s-0.53-0.25-0.92-0.25c-0.49,0-0.86,0.15-1.11,0.46s-0.38,0.65-0.38,1.05
		c0,0.42,0.14,0.77,0.42,1.05s0.64,0.41,1.08,0.41c0.25,0,0.51-0.05,0.78-0.14s0.5-0.25,0.72-0.45c0.05-0.05,0.1-0.08,0.14-0.08
		c0.04,0,0.08,0.01,0.11,0.04s0.04,0.07,0.04,0.11c0,0.11-0.13,0.25-0.39,0.43c-0.42,0.28-0.9,0.42-1.42,0.42
		c-0.53,0-0.96-0.17-1.3-0.51s-0.51-0.76-0.51-1.28c0-0.53,0.17-0.97,0.52-1.32s0.79-0.52,1.31-0.52
		C13.19,54.58,13.61,54.73,13.95,55.03z"/>
	<path d="M23.98,55.36H20.4c-0.08,0-0.13-0.02-0.17-0.05s-0.05-0.07-0.05-0.12c0-0.05,0.02-0.09,0.05-0.12s0.09-0.05,0.17-0.05h3.58
		c0.08,0,0.13,0.02,0.17,0.05s0.05,0.07,0.05,0.12c0,0.05-0.02,0.09-0.05,0.12S24.06,55.36,23.98,55.36z M23.98,56.54H20.4
		c-0.08,0-0.13-0.01-0.17-0.04s-0.05-0.07-0.05-0.12s0.02-0.09,0.05-0.12s0.09-0.04,0.17-0.04h3.58c0.08,0,0.13,0.01,0.17,0.04
		s0.05,0.07,0.05,0.12s-0.02,0.09-0.05,0.12S24.06,56.54,23.98,56.54z"/>
	<path d="M32.87,54.91c0-0.08,0.02-0.13,0.05-0.16s0.07-0.05,0.12-0.05c0.05,0,0.09,0.02,0.12,0.05s0.05,0.09,0.05,0.17v0.56
		c0,0.08-0.02,0.13-0.05,0.17s-0.07,0.05-0.12,0.05c-0.04,0-0.08-0.01-0.11-0.04s-0.05-0.08-0.05-0.14
		c-0.02-0.16-0.1-0.29-0.24-0.39c-0.21-0.15-0.5-0.22-0.85-0.22c-0.37,0-0.65,0.07-0.86,0.22c-0.15,0.11-0.23,0.24-0.23,0.38
		c0,0.16,0.09,0.29,0.27,0.39c0.12,0.07,0.36,0.13,0.71,0.17c0.46,0.05,0.77,0.11,0.95,0.17c0.25,0.09,0.44,0.22,0.56,0.38
		s0.19,0.34,0.19,0.52c0,0.28-0.13,0.53-0.4,0.74s-0.66,0.33-1.18,0.33c-0.52,0-0.94-0.13-1.27-0.39c0,0.09,0,0.15-0.02,0.17
		s-0.03,0.05-0.06,0.07s-0.06,0.03-0.09,0.03c-0.05,0-0.09-0.02-0.12-0.05s-0.05-0.09-0.05-0.17v-0.68c0-0.08,0.01-0.13,0.04-0.17
		s0.07-0.05,0.12-0.05c0.05,0,0.09,0.02,0.12,0.05s0.05,0.08,0.05,0.13c0,0.12,0.03,0.22,0.09,0.3c0.09,0.12,0.24,0.23,0.44,0.31
		s0.44,0.12,0.73,0.12c0.43,0,0.75-0.08,0.95-0.24s0.31-0.33,0.31-0.5c0-0.2-0.11-0.37-0.32-0.49c-0.21-0.12-0.52-0.2-0.93-0.25
		c-0.41-0.04-0.7-0.1-0.88-0.16s-0.32-0.17-0.41-0.3s-0.15-0.28-0.15-0.44c0-0.28,0.14-0.5,0.41-0.67s0.61-0.25,0.99-0.25
		C32.22,54.58,32.59,54.69,32.87,54.91z"/>
	<path d="M35.92,54.69h1.78c0.08,0,0.13,0.02,0.17,0.05s0.05,0.07,0.05,0.12c0,0.05-0.02,0.09-0.05,0.12s-0.09,0.05-0.17,0.05h-1.78
		v2.18c0,0.19,0.08,0.35,0.23,0.48s0.38,0.19,0.67,0.19c0.22,0,0.46-0.03,0.72-0.1s0.46-0.14,0.6-0.22
		c0.05-0.03,0.09-0.05,0.13-0.05c0.04,0,0.08,0.02,0.11,0.05s0.05,0.07,0.05,0.12c0,0.04-0.02,0.08-0.05,0.11
		c-0.08,0.09-0.29,0.18-0.61,0.28s-0.63,0.15-0.92,0.15c-0.38,0-0.69-0.09-0.91-0.27s-0.34-0.42-0.34-0.73v-2.18h-0.61
		c-0.08,0-0.13-0.02-0.17-0.05s-0.05-0.07-0.05-0.12c0-0.05,0.02-0.09,0.05-0.12s0.09-0.05,0.17-0.05h0.61v-0.97
		c0-0.08,0.02-0.13,0.05-0.17s0.07-0.05,0.12-0.05c0.05,0,0.09,0.02,0.12,0.05s0.05,0.09,0.05,0.17V54.69z"/>
	<path d="M42.33,58.08V57.6c-0.48,0.4-0.99,0.6-1.53,0.6c-0.39,0-0.7-0.1-0.92-0.3s-0.33-0.44-0.33-0.73c0-0.32,0.15-0.59,0.44-0.83
		s0.72-0.36,1.28-0.36c0.15,0,0.32,0.01,0.49,0.03s0.37,0.05,0.57,0.09v-0.53c0-0.18-0.08-0.34-0.25-0.47s-0.42-0.2-0.75-0.2
		c-0.25,0-0.61,0.07-1.07,0.22c-0.08,0.03-0.14,0.04-0.16,0.04c-0.04,0-0.08-0.02-0.11-0.05s-0.04-0.07-0.04-0.12
		c0-0.04,0.01-0.08,0.04-0.11c0.04-0.04,0.18-0.09,0.44-0.16c0.41-0.11,0.71-0.16,0.92-0.16c0.41,0,0.74,0.1,0.97,0.31
		s0.35,0.44,0.35,0.69v2.17h0.44c0.08,0,0.14,0.01,0.17,0.04s0.05,0.07,0.05,0.12c0,0.05-0.02,0.09-0.05,0.12s-0.09,0.05-0.17,0.05
		H42.33z M42.33,56.44c-0.15-0.04-0.32-0.08-0.49-0.1s-0.35-0.03-0.54-0.03c-0.48,0-0.85,0.1-1.12,0.31c-0.2,0.15-0.3,0.34-0.3,0.55
		c0,0.2,0.08,0.36,0.23,0.5s0.38,0.2,0.68,0.2c0.28,0,0.55-0.06,0.79-0.17s0.49-0.29,0.75-0.54V56.44z"/>
	<path d="M45.52,54.69h1.78c0.08,0,0.13,0.02,0.17,0.05s0.05,0.07,0.05,0.12c0,0.05-0.02,0.09-0.05,0.12s-0.09,0.05-0.17,0.05h-1.78
		v2.18c0,0.19,0.08,0.35,0.23,0.48s0.38,0.19,0.67,0.19c0.22,0,0.46-0.03,0.72-0.1s0.46-0.14,0.6-0.22
		c0.05-0.03,0.09-0.05,0.13-0.05c0.04,0,0.08,0.02,0.11,0.05s0.05,0.07,0.05,0.12c0,0.04-0.02,0.08-0.05,0.11
		c-0.08,0.09-0.29,0.18-0.61,0.28s-0.63,0.15-0.92,0.15c-0.38,0-0.69-0.09-0.91-0.27s-0.34-0.42-0.34-0.73v-2.18h-0.61
		c-0.08,0-0.13-0.02-0.17-0.05s-0.05-0.07-0.05-0.12c0-0.05,0.02-0.09,0.05-0.12s0.09-0.05,0.17-0.05h0.61v-0.97
		c0-0.08,0.02-0.13,0.05-0.17s0.07-0.05,0.12-0.05c0.05,0,0.09,0.02,0.12,0.05s0.05,0.09,0.05,0.17V54.69z"/>
	<path d="M52.77,56.46h-3.34c0.06,0.42,0.24,0.77,0.53,1.03s0.67,0.39,1.11,0.39c0.25,0,0.5-0.04,0.77-0.12s0.49-0.19,0.66-0.32
		c0.05-0.04,0.09-0.06,0.13-0.06c0.04,0,0.08,0.02,0.11,0.05s0.05,0.07,0.05,0.12s-0.02,0.09-0.06,0.13
		c-0.12,0.13-0.35,0.25-0.67,0.37s-0.65,0.17-0.98,0.17c-0.56,0-1.03-0.18-1.41-0.55s-0.56-0.81-0.56-1.34
		c0-0.48,0.18-0.89,0.53-1.23s0.79-0.51,1.31-0.51c0.54,0,0.98,0.17,1.32,0.53S52.77,55.9,52.77,56.46z M52.44,56.13
		c-0.07-0.36-0.24-0.66-0.51-0.88s-0.61-0.34-0.99-0.34s-0.71,0.11-0.99,0.34s-0.45,0.52-0.52,0.89H52.44z"/>
	<path d="M55.72,57.13h0.14c0.15,0,0.27,0.05,0.38,0.15s0.16,0.23,0.16,0.37c0,0.15-0.05,0.28-0.16,0.38s-0.23,0.15-0.37,0.15h-0.14
		c-0.15,0-0.27-0.05-0.38-0.15s-0.16-0.23-0.16-0.37c0-0.15,0.05-0.28,0.16-0.38S55.58,57.13,55.72,57.13z"/>
	<path d="M61.68,54.91c0-0.08,0.02-0.13,0.05-0.16s0.07-0.05,0.12-0.05c0.05,0,0.09,0.02,0.12,0.05s0.05,0.09,0.05,0.17v0.56
		c0,0.08-0.02,0.13-0.05,0.17s-0.07,0.05-0.12,0.05c-0.04,0-0.08-0.01-0.11-0.04s-0.05-0.08-0.05-0.14
		c-0.02-0.16-0.1-0.29-0.24-0.39c-0.21-0.15-0.5-0.22-0.85-0.22c-0.37,0-0.65,0.07-0.86,0.22c-0.15,0.11-0.23,0.24-0.23,0.38
		c0,0.16,0.09,0.29,0.27,0.39c0.12,0.07,0.36,0.13,0.71,0.17c0.46,0.05,0.77,0.11,0.95,0.17c0.25,0.09,0.44,0.22,0.56,0.38
		s0.19,0.34,0.19,0.52c0,0.28-0.13,0.53-0.4,0.74s-0.66,0.33-1.18,0.33s-0.94-0.13-1.27-0.39c0,0.09,0,0.15-0.02,0.17
		s-0.03,0.05-0.06,0.07s-0.06,0.03-0.09,0.03c-0.05,0-0.09-0.02-0.12-0.05S59,57.94,59,57.86v-0.68c0-0.08,0.01-0.13,0.04-0.17
		s0.07-0.05,0.12-0.05c0.05,0,0.09,0.02,0.12,0.05s0.05,0.08,0.05,0.13c0,0.12,0.03,0.22,0.09,0.3c0.09,0.12,0.24,0.23,0.44,0.31
		s0.44,0.12,0.73,0.12c0.43,0,0.75-0.08,0.95-0.24s0.31-0.33,0.31-0.5c0-0.2-0.11-0.37-0.32-0.49c-0.21-0.12-0.52-0.2-0.93-0.25
		s-0.7-0.1-0.88-0.16s-0.32-0.17-0.41-0.3s-0.15-0.28-0.15-0.44c0-0.28,0.14-0.5,0.41-0.67s0.61-0.25,0.99-0.25
		C61.03,54.58,61.39,54.69,61.68,54.91z"/>
	<path d="M66.76,55.03v-0.11c0-0.08,0.02-0.14,0.05-0.17s0.07-0.05,0.12-0.05c0.05,0,0.09,0.02,0.12,0.05s0.05,0.09,0.05,0.17v0.74
		c0,0.08-0.02,0.14-0.05,0.17s-0.07,0.05-0.12,0.05c-0.04,0-0.08-0.01-0.11-0.04s-0.05-0.08-0.05-0.15
		c-0.02-0.18-0.14-0.36-0.37-0.53s-0.53-0.25-0.92-0.25c-0.49,0-0.86,0.15-1.11,0.46s-0.38,0.65-0.38,1.05
		c0,0.42,0.14,0.77,0.42,1.05s0.64,0.41,1.08,0.41c0.25,0,0.51-0.05,0.78-0.14s0.5-0.25,0.72-0.45c0.05-0.05,0.1-0.08,0.14-0.08
		c0.04,0,0.08,0.01,0.11,0.04s0.04,0.07,0.04,0.11c0,0.11-0.13,0.25-0.39,0.43c-0.42,0.28-0.9,0.42-1.42,0.42
		c-0.53,0-0.96-0.17-1.3-0.51s-0.51-0.76-0.51-1.28c0-0.53,0.17-0.97,0.52-1.32s0.79-0.52,1.31-0.52
		C66,54.58,66.42,54.73,66.76,55.03z"/>
	<path d="M72.03,56.39c0,0.5-0.18,0.93-0.54,1.28S70.7,58.2,70.2,58.2c-0.51,0-0.94-0.18-1.3-0.53s-0.54-0.78-0.54-1.28
		c0-0.5,0.18-0.93,0.54-1.28s0.79-0.53,1.3-0.53c0.5,0,0.94,0.18,1.29,0.53S72.03,55.89,72.03,56.39z M71.7,56.39
		c0-0.41-0.15-0.76-0.44-1.05s-0.65-0.43-1.06-0.43s-0.77,0.15-1.06,0.44s-0.44,0.64-0.44,1.05c0,0.41,0.15,0.75,0.44,1.05
		s0.65,0.44,1.06,0.44s0.77-0.15,1.06-0.44S71.7,56.8,71.7,56.39z"/>
	<path d="M73.76,54.69v0.6c0.2-0.24,0.41-0.42,0.63-0.54s0.49-0.18,0.79-0.18c0.32,0,0.62,0.08,0.89,0.23s0.49,0.36,0.63,0.63
		s0.22,0.55,0.22,0.85c0,0.47-0.17,0.87-0.51,1.21s-0.75,0.5-1.24,0.5c-0.59,0-1.06-0.24-1.43-0.71v1.98h0.8
		c0.08,0,0.13,0.01,0.17,0.04s0.05,0.07,0.05,0.12c0,0.05-0.02,0.09-0.05,0.12s-0.09,0.05-0.17,0.05h-1.57
		c-0.08,0-0.13-0.01-0.17-0.04s-0.05-0.07-0.05-0.12s0.02-0.09,0.05-0.12s0.09-0.04,0.17-0.04h0.44v-4.23h-0.44
		c-0.08,0-0.13-0.02-0.17-0.05s-0.05-0.07-0.05-0.12c0-0.05,0.02-0.09,0.05-0.12s0.09-0.05,0.17-0.05H73.76z M76.6,56.28
		c0-0.38-0.14-0.7-0.41-0.97s-0.61-0.4-1.01-0.4c-0.4,0-0.74,0.14-1.01,0.41s-0.41,0.59-0.41,0.97c0,0.38,0.14,0.7,0.41,0.97
		s0.61,0.41,1.01,0.41c0.39,0,0.73-0.13,1-0.4S76.6,56.66,76.6,56.28z"/>
	<path d="M81.57,56.46h-3.34c0.06,0.42,0.24,0.77,0.53,1.03s0.67,0.39,1.11,0.39c0.25,0,0.5-0.04,0.77-0.12s0.49-0.19,0.66-0.32
		c0.05-0.04,0.09-0.06,0.13-0.06c0.04,0,0.08,0.02,0.11,0.05s0.05,0.07,0.05,0.12s-0.02,0.09-0.06,0.13
		c-0.12,0.13-0.35,0.25-0.67,0.37s-0.65,0.17-0.98,0.17c-0.56,0-1.03-0.18-1.41-0.55s-0.56-0.81-0.56-1.34
		c0-0.48,0.18-0.89,0.53-1.23s0.79-0.51,1.31-0.51c0.54,0,0.98,0.17,1.32,0.53S81.58,55.9,81.57,56.46z M81.24,56.13
		c-0.07-0.36-0.24-0.66-0.51-0.88s-0.61-0.34-0.99-0.34s-0.71,0.11-0.99,0.34s-0.45,0.52-0.52,0.89H81.24z"/>
	<path d="M86.78,60.27h-4.36c-0.08,0-0.13-0.01-0.17-0.04s-0.05-0.07-0.05-0.12s0.02-0.09,0.05-0.12s0.09-0.04,0.17-0.04h4.36
		c0.08,0,0.14,0.01,0.17,0.04S87,60.05,87,60.1s-0.02,0.09-0.05,0.12S86.86,60.27,86.78,60.27z"/>
	<path d="M90.77,55.03v-0.11c0-0.08,0.02-0.14,0.05-0.17s0.07-0.05,0.12-0.05c0.05,0,0.09,0.02,0.12,0.05s0.05,0.09,0.05,0.17v0.74
		c0,0.08-0.02,0.14-0.05,0.17s-0.07,0.05-0.12,0.05c-0.04,0-0.08-0.01-0.11-0.04s-0.05-0.08-0.05-0.15
		c-0.02-0.18-0.14-0.36-0.37-0.53s-0.53-0.25-0.92-0.25c-0.49,0-0.86,0.15-1.11,0.46s-0.38,0.65-0.38,1.05
		c0,0.42,0.14,0.77,0.42,1.05s0.64,0.41,1.08,0.41c0.25,0,0.51-0.05,0.78-0.14s0.5-0.25,0.72-0.45c0.05-0.05,0.1-0.08,0.14-0.08
		c0.04,0,0.08,0.01,0.11,0.04s0.04,0.07,0.04,0.11c0,0.11-0.13,0.25-0.39,0.43c-0.42,0.28-0.9,0.42-1.42,0.42
		c-0.53,0-0.96-0.17-1.3-0.51s-0.51-0.76-0.51-1.28c0-0.53,0.17-0.97,0.52-1.32s0.79-0.52,1.31-0.52
		C90,54.58,90.43,54.73,90.77,55.03z"/>
	<path d="M93.12,53.17v2.02c0.21-0.23,0.41-0.39,0.6-0.48s0.41-0.14,0.64-0.14c0.25,0,0.47,0.04,0.65,0.13s0.33,0.23,0.45,0.41
		s0.18,0.38,0.18,0.59v2.04h0.37c0.08,0,0.14,0.01,0.17,0.04s0.05,0.07,0.05,0.12c0,0.05-0.02,0.09-0.05,0.12s-0.09,0.05-0.17,0.05
		h-1.07c-0.08,0-0.14-0.02-0.17-0.05s-0.05-0.07-0.05-0.12c0-0.05,0.02-0.09,0.05-0.12s0.09-0.04,0.17-0.04h0.37v-2.01
		c0-0.24-0.08-0.43-0.26-0.59s-0.41-0.24-0.71-0.24c-0.24,0-0.44,0.06-0.61,0.18c-0.12,0.08-0.32,0.28-0.61,0.59v2.08h0.37
		c0.08,0,0.13,0.01,0.17,0.04s0.05,0.07,0.05,0.12c0,0.05-0.02,0.09-0.05,0.12s-0.09,0.05-0.17,0.05h-1.07
		c-0.08,0-0.13-0.02-0.17-0.05s-0.05-0.07-0.05-0.12c0-0.05,0.02-0.09,0.05-0.12s0.09-0.04,0.17-0.04h0.37v-4.24h-0.44
		c-0.08,0-0.13-0.02-0.17-0.05s-0.05-0.07-0.05-0.12c0-0.05,0.02-0.09,0.05-0.12s0.09-0.05,0.17-0.05H93.12z"/>
	<path d="M99.17,54.69v3.05h1.29c0.08,0,0.14,0.01,0.17,0.04s0.05,0.07,0.05,0.12c0,0.05-0.02,0.09-0.05,0.12s-0.09,0.05-0.17,0.05
		h-2.91c-0.08,0-0.13-0.02-0.17-0.05s-0.05-0.07-0.05-0.12c0-0.05,0.02-0.09,0.05-0.12s0.09-0.04,0.17-0.04h1.29v-2.72h-0.96
		c-0.08,0-0.13-0.02-0.17-0.05s-0.05-0.07-0.05-0.12c0-0.05,0.02-0.09,0.05-0.12s0.09-0.05,0.17-0.05H99.17z M99.16,53.01v0.85
		h-0.48v-0.85H99.16z"/>
	<path d="M103.97,53.17v4.57h1.29c0.08,0,0.14,0.01,0.17,0.04s0.05,0.07,0.05,0.12c0,0.05-0.02,0.09-0.05,0.12s-0.09,0.05-0.17,0.05
		h-2.91c-0.08,0-0.13-0.02-0.17-0.05s-0.05-0.07-0.05-0.12c0-0.05,0.02-0.09,0.05-0.12s0.09-0.04,0.17-0.04h1.29v-4.24h-0.95
		c-0.08,0-0.13-0.02-0.17-0.05s-0.05-0.07-0.05-0.12c0-0.05,0.02-0.09,0.05-0.12s0.09-0.05,0.17-0.05H103.97z"/>
	<path d="M110.21,53.17v4.57h0.44c0.08,0,0.14,0.01,0.17,0.04s0.05,0.07,0.05,0.12c0,0.05-0.02,0.09-0.05,0.12s-0.09,0.05-0.17,0.05
		h-0.77v-0.65c-0.38,0.52-0.86,0.78-1.45,0.78c-0.3,0-0.58-0.08-0.85-0.24s-0.49-0.38-0.64-0.67s-0.24-0.59-0.24-0.9
		c0-0.31,0.08-0.61,0.24-0.9s0.37-0.51,0.64-0.67s0.56-0.24,0.86-0.24c0.57,0,1.05,0.26,1.45,0.78v-1.85h-0.44
		c-0.08,0-0.14-0.02-0.17-0.05s-0.05-0.07-0.05-0.12c0-0.05,0.02-0.09,0.05-0.12s0.09-0.05,0.17-0.05H110.21z M109.88,56.39
		c0-0.42-0.14-0.77-0.42-1.05s-0.62-0.43-1-0.43c-0.39,0-0.73,0.14-1.01,0.43s-0.42,0.64-0.42,1.05c0,0.41,0.14,0.76,0.42,1.05
		s0.62,0.43,1.01,0.43c0.39,0,0.72-0.14,1-0.43S109.88,56.81,109.88,56.39z"/>
	<path d="M113.01,54.69v0.83c0.43-0.39,0.75-0.63,0.96-0.74s0.41-0.17,0.59-0.17c0.2,0,0.38,0.07,0.54,0.2s0.25,0.23,0.25,0.3
		c0,0.05-0.02,0.09-0.05,0.12s-0.07,0.05-0.12,0.05c-0.03,0-0.05,0-0.07-0.01s-0.05-0.04-0.1-0.09c-0.09-0.09-0.17-0.15-0.24-0.19
		s-0.13-0.05-0.2-0.05c-0.14,0-0.32,0.06-0.52,0.17s-0.55,0.39-1.05,0.84v1.8h1.45c0.08,0,0.14,0.01,0.17,0.04s0.05,0.07,0.05,0.12
		c0,0.05-0.02,0.09-0.05,0.12s-0.09,0.05-0.17,0.05h-2.57c-0.08,0-0.13-0.01-0.17-0.04s-0.05-0.07-0.05-0.12
		c0-0.04,0.02-0.08,0.05-0.11s0.09-0.04,0.17-0.04h0.79v-2.73h-0.61c-0.08,0-0.13-0.02-0.17-0.05s-0.05-0.07-0.05-0.12
		c0-0.05,0.02-0.09,0.05-0.12s0.09-0.05,0.17-0.05H113.01z"/>
	<path d="M119.98,56.46h-3.34c0.06,0.42,0.24,0.77,0.53,1.03s0.67,0.39,1.11,0.39c0.25,0,0.5-0.04,0.77-0.12s0.49-0.19,0.66-0.32
		c0.05-0.04,0.09-0.06,0.13-0.06c0.04,0,0.08,0.02,0.11,0.05s0.05,0.07,0.05,0.12s-0.02,0.09-0.06,0.13
		c-0.12,0.13-0.35,0.25-0.67,0.37s-0.65,0.17-0.98,0.17c-0.56,0-1.03-0.18-1.41-0.55s-0.56-0.81-0.56-1.34
		c0-0.48,0.18-0.89,0.53-1.23s0.79-0.51,1.31-0.51c0.54,0,0.98,0.17,1.32,0.53S119.98,55.9,119.98,56.46z M119.65,56.13
		c-0.07-0.36-0.24-0.66-0.51-0.88s-0.61-0.34-0.99-0.34s-0.71,0.11-0.99,0.34s-0.45,0.52-0.52,0.89H119.65z"/>
	<path d="M121.94,54.69v0.5c0.23-0.23,0.44-0.39,0.62-0.48s0.39-0.13,0.62-0.13c0.25,0,0.48,0.05,0.68,0.16
		c0.15,0.08,0.28,0.21,0.4,0.39s0.18,0.37,0.18,0.56v2.07h0.28c0.08,0,0.13,0.01,0.17,0.04s0.05,0.07,0.05,0.12
		c0,0.05-0.02,0.09-0.05,0.12s-0.09,0.05-0.17,0.05h-0.88c-0.08,0-0.14-0.02-0.17-0.05s-0.05-0.07-0.05-0.12
		c0-0.05,0.02-0.09,0.05-0.12s0.09-0.04,0.17-0.04h0.27v-2.01c0-0.23-0.08-0.43-0.25-0.59s-0.4-0.24-0.68-0.24
		c-0.22,0-0.4,0.04-0.56,0.13s-0.39,0.3-0.68,0.65v2.06h0.37c0.08,0,0.13,0.01,0.17,0.04s0.05,0.07,0.05,0.12
		c0,0.05-0.02,0.09-0.05,0.12s-0.09,0.05-0.17,0.05h-1.07c-0.08,0-0.13-0.02-0.17-0.05s-0.05-0.07-0.05-0.12
		c0-0.05,0.02-0.09,0.05-0.12s0.09-0.04,0.17-0.04h0.37v-2.72h-0.28c-0.08,0-0.13-0.02-0.17-0.05s-0.05-0.07-0.05-0.12
		c0-0.05,0.02-0.09,0.05-0.12s0.09-0.05,0.17-0.05H121.94z"/>
	<path d="M127.77,56.13c0-0.3,0.04-0.62,0.12-0.95s0.23-0.72,0.45-1.16s0.38-0.71,0.48-0.8c0.03-0.03,0.07-0.04,0.1-0.04
		c0.05,0,0.09,0.02,0.12,0.05s0.05,0.07,0.05,0.11c0,0.03-0.01,0.05-0.03,0.09c-0.29,0.53-0.49,1-0.61,1.43s-0.18,0.85-0.18,1.28
		c0,0.43,0.06,0.86,0.18,1.29s0.33,0.9,0.61,1.43c0.02,0.03,0.03,0.06,0.03,0.09c0,0.04-0.02,0.08-0.05,0.12s-0.07,0.05-0.12,0.05
		c-0.04,0-0.07-0.01-0.1-0.04c-0.1-0.09-0.25-0.35-0.47-0.78s-0.37-0.81-0.45-1.14S127.77,56.47,127.77,56.13z"/>
	<path d="M132.7,56.13c0,0.3-0.04,0.62-0.12,0.95s-0.23,0.72-0.45,1.16s-0.38,0.71-0.48,0.79c-0.03,0.03-0.07,0.05-0.1,0.05
		c-0.05,0-0.09-0.02-0.12-0.05s-0.05-0.07-0.05-0.12c0-0.03,0.01-0.05,0.03-0.09c0.29-0.52,0.49-1,0.61-1.43s0.18-0.85,0.18-1.28
		c0-0.43-0.06-0.86-0.18-1.29s-0.33-0.9-0.61-1.43c-0.02-0.03-0.03-0.06-0.03-0.09c0-0.04,0.02-0.08,0.05-0.11s0.07-0.05,0.12-0.05
		c0.04,0,0.07,0.01,0.1,0.04c0.1,0.09,0.25,0.35,0.47,0.78s0.37,0.81,0.45,1.14S132.7,55.8,132.7,56.13z"/>
</g>
<g>
	<path d="M8.87,177.11c0-0.08,0.02-0.13,0.05-0.16c0.03-0.03,0.07-0.05,0.12-0.05c0.05,0,0.09,0.02,0.12,0.05
		c0.03,0.03,0.05,0.09,0.05,0.17v0.56c0,0.08-0.02,0.13-0.05,0.17c-0.03,0.03-0.07,0.05-0.12,0.05c-0.04,0-0.08-0.01-0.11-0.04
		c-0.03-0.03-0.05-0.08-0.05-0.14c-0.02-0.16-0.1-0.29-0.24-0.39c-0.21-0.15-0.5-0.22-0.85-0.22c-0.37,0-0.65,0.07-0.86,0.22
		c-0.15,0.11-0.23,0.24-0.23,0.38c0,0.16,0.09,0.29,0.27,0.39c0.12,0.07,0.36,0.13,0.71,0.17c0.46,0.05,0.77,0.11,0.95,0.17
		c0.25,0.09,0.44,0.22,0.56,0.38c0.12,0.16,0.19,0.34,0.19,0.52c0,0.28-0.13,0.53-0.4,0.74c-0.27,0.22-0.66,0.33-1.18,0.33
		s-0.94-0.13-1.27-0.39c0,0.09,0,0.15-0.02,0.17c-0.01,0.03-0.03,0.05-0.06,0.07c-0.03,0.02-0.06,0.03-0.09,0.03
		c-0.05,0-0.09-0.02-0.12-0.05c-0.03-0.03-0.05-0.09-0.05-0.17v-0.68c0-0.08,0.01-0.13,0.04-0.17c0.03-0.03,0.07-0.05,0.12-0.05
		c0.05,0,0.09,0.02,0.12,0.05c0.03,0.03,0.05,0.08,0.05,0.13c0,0.12,0.03,0.22,0.09,0.3c0.09,0.12,0.24,0.23,0.44,0.31
		s0.44,0.12,0.73,0.12c0.43,0,0.75-0.08,0.95-0.24c0.21-0.16,0.31-0.33,0.31-0.5c0-0.2-0.11-0.37-0.32-0.49
		c-0.21-0.12-0.52-0.21-0.93-0.25c-0.41-0.04-0.7-0.1-0.88-0.16c-0.18-0.07-0.32-0.17-0.41-0.3c-0.1-0.14-0.15-0.28-0.15-0.44
		c0-0.28,0.14-0.5,0.41-0.67c0.28-0.17,0.61-0.25,0.99-0.25C8.22,176.78,8.58,176.89,8.87,177.11z"/>
	<path d="M14.19,175.38v4.57h0.44c0.08,0,0.14,0.01,0.17,0.04c0.03,0.03,0.05,0.07,0.05,0.12c0,0.05-0.02,0.09-0.05,0.12
		s-0.09,0.05-0.17,0.05h-0.77v-0.65c-0.38,0.52-0.86,0.78-1.45,0.78c-0.3,0-0.58-0.08-0.85-0.24c-0.27-0.16-0.49-0.38-0.64-0.67
		c-0.16-0.29-0.24-0.59-0.24-0.9c0-0.31,0.08-0.61,0.24-0.9c0.16-0.29,0.37-0.52,0.64-0.67c0.27-0.16,0.56-0.24,0.86-0.24
		c0.57,0,1.05,0.26,1.45,0.78v-1.85h-0.44c-0.08,0-0.14-0.02-0.17-0.05s-0.05-0.07-0.05-0.12c0-0.05,0.02-0.09,0.05-0.12
		s0.09-0.05,0.17-0.05H14.19z M13.86,178.6c0-0.42-0.14-0.77-0.42-1.05c-0.28-0.29-0.62-0.43-1-0.43c-0.39,0-0.73,0.14-1.01,0.43
		c-0.28,0.29-0.42,0.64-0.42,1.05c0,0.41,0.14,0.76,0.42,1.05c0.28,0.29,0.62,0.43,1.01,0.43c0.39,0,0.72-0.14,1-0.43
		C13.72,179.36,13.86,179.01,13.86,178.6z"/>
	<path d="M17.56,176.9v3.05h1.29c0.08,0,0.14,0.01,0.17,0.04c0.03,0.03,0.05,0.07,0.05,0.12c0,0.05-0.02,0.09-0.05,0.12
		s-0.09,0.05-0.17,0.05h-2.91c-0.08,0-0.13-0.02-0.17-0.05s-0.05-0.07-0.05-0.12c0-0.05,0.02-0.09,0.05-0.12
		c0.03-0.03,0.09-0.04,0.17-0.04h1.29v-2.72h-0.96c-0.08,0-0.13-0.02-0.17-0.05s-0.05-0.07-0.05-0.12c0-0.05,0.02-0.09,0.05-0.12
		s0.09-0.05,0.17-0.05H17.56z M17.55,175.21v0.85h-0.48v-0.85H17.55z"/>
	<path d="M23.56,177.23v-0.11c0-0.08,0.02-0.14,0.05-0.17c0.03-0.03,0.07-0.05,0.12-0.05c0.05,0,0.09,0.02,0.12,0.05
		c0.03,0.03,0.05,0.09,0.05,0.17v0.74c0,0.08-0.02,0.14-0.05,0.17c-0.03,0.03-0.07,0.05-0.12,0.05c-0.04,0-0.08-0.02-0.11-0.04
		c-0.03-0.03-0.05-0.08-0.05-0.15c-0.02-0.19-0.14-0.36-0.37-0.53c-0.23-0.17-0.53-0.25-0.92-0.25c-0.49,0-0.86,0.15-1.11,0.46
		s-0.38,0.65-0.38,1.05c0,0.42,0.14,0.77,0.42,1.05c0.28,0.28,0.64,0.41,1.08,0.41c0.25,0,0.51-0.05,0.78-0.14s0.5-0.25,0.72-0.45
		c0.05-0.05,0.1-0.08,0.14-0.08c0.04,0,0.08,0.01,0.11,0.04c0.03,0.03,0.04,0.07,0.04,0.11c0,0.11-0.13,0.25-0.39,0.43
		c-0.42,0.28-0.9,0.42-1.42,0.42c-0.53,0-0.96-0.17-1.3-0.51c-0.34-0.34-0.51-0.77-0.51-1.28c0-0.53,0.17-0.97,0.52-1.32
		c0.35-0.35,0.79-0.52,1.31-0.52C22.79,176.78,23.22,176.93,23.56,177.23z"/>
	<path d="M26.31,176.9h1.78c0.08,0,0.13,0.02,0.17,0.05s0.05,0.07,0.05,0.12c0,0.05-0.02,0.09-0.05,0.12s-0.09,0.05-0.17,0.05h-1.78
		v2.18c0,0.19,0.08,0.35,0.23,0.48c0.15,0.13,0.38,0.19,0.67,0.19c0.22,0,0.46-0.03,0.72-0.1s0.46-0.14,0.6-0.22
		c0.05-0.03,0.09-0.05,0.13-0.05c0.04,0,0.08,0.02,0.11,0.05c0.03,0.03,0.05,0.07,0.05,0.12c0,0.04-0.02,0.08-0.05,0.11
		c-0.08,0.09-0.29,0.18-0.61,0.28c-0.32,0.1-0.63,0.15-0.92,0.15c-0.38,0-0.69-0.09-0.91-0.27s-0.34-0.42-0.34-0.73v-2.18h-0.61
		c-0.08,0-0.13-0.02-0.17-0.05s-0.05-0.07-0.05-0.12c0-0.05,0.02-0.09,0.05-0.12s0.09-0.05,0.17-0.05h0.61v-0.97
		c0-0.08,0.02-0.13,0.05-0.17c0.03-0.03,0.07-0.05,0.12-0.05c0.05,0,0.09,0.02,0.12,0.05c0.03,0.03,0.05,0.09,0.05,0.17V176.9z"/>
	<path d="M38.38,177.57H34.8c-0.08,0-0.13-0.02-0.17-0.05s-0.05-0.07-0.05-0.12c0-0.05,0.02-0.09,0.05-0.12s0.09-0.05,0.17-0.05
		h3.58c0.08,0,0.13,0.02,0.17,0.05s0.05,0.07,0.05,0.12c0,0.05-0.02,0.09-0.05,0.12S38.46,177.57,38.38,177.57z M38.38,178.74H34.8
		c-0.08,0-0.13-0.02-0.17-0.04c-0.03-0.03-0.05-0.07-0.05-0.12c0-0.05,0.02-0.09,0.05-0.12c0.03-0.03,0.09-0.04,0.17-0.04h3.58
		c0.08,0,0.13,0.01,0.17,0.04c0.03,0.03,0.05,0.07,0.05,0.12c0,0.05-0.02,0.09-0.05,0.12C38.51,178.73,38.46,178.74,38.38,178.74z"
		/>
	<path d="M47.28,177.11c0-0.08,0.02-0.13,0.05-0.16c0.03-0.03,0.07-0.05,0.12-0.05c0.05,0,0.09,0.02,0.12,0.05
		c0.03,0.03,0.05,0.09,0.05,0.17v0.56c0,0.08-0.02,0.13-0.05,0.17c-0.03,0.03-0.07,0.05-0.12,0.05c-0.04,0-0.08-0.01-0.11-0.04
		c-0.03-0.03-0.05-0.08-0.05-0.14c-0.02-0.16-0.1-0.29-0.24-0.39c-0.21-0.15-0.5-0.22-0.85-0.22c-0.37,0-0.65,0.07-0.86,0.22
		c-0.15,0.11-0.23,0.24-0.23,0.38c0,0.16,0.09,0.29,0.27,0.39c0.12,0.07,0.36,0.13,0.71,0.17c0.46,0.05,0.77,0.11,0.95,0.17
		c0.25,0.09,0.44,0.22,0.56,0.38c0.12,0.16,0.19,0.34,0.19,0.52c0,0.28-0.13,0.53-0.4,0.74c-0.27,0.22-0.66,0.33-1.18,0.33
		s-0.94-0.13-1.27-0.39c0,0.09,0,0.15-0.02,0.17c-0.01,0.03-0.03,0.05-0.06,0.07c-0.03,0.02-0.06,0.03-0.09,0.03
		c-0.05,0-0.09-0.02-0.12-0.05c-0.03-0.03-0.05-0.09-0.05-0.17v-0.68c0-0.08,0.01-0.13,0.04-0.17c0.03-0.03,0.07-0.05,0.12-0.05
		c0.05,0,0.09,0.02,0.12,0.05c0.03,0.03,0.05,0.08,0.05,0.13c0,0.12,0.03,0.22,0.09,0.3c0.09,0.12,0.24,0.23,0.44,0.31
		s0.44,0.12,0.73,0.12c0.43,0,0.75-0.08,0.95-0.24c0.21-0.16,0.31-0.33,0.31-0.5c0-0.2-0.11-0.37-0.32-0.49
		c-0.21-0.12-0.52-0.21-0.93-0.25c-0.41-0.04-0.7-0.1-0.88-0.16c-0.18-0.07-0.32-0.17-0.41-0.3c-0.1-0.14-0.15-0.28-0.15-0.44
		c0-0.28,0.14-0.5,0.41-0.67c0.28-0.17,0.61-0.25,0.99-0.25C46.62,176.78,46.99,176.89,47.28,177.11z"/>
	<path d="M50.32,176.9h1.78c0.08,0,0.13,0.02,0.17,0.05s0.05,0.07,0.05,0.12c0,0.05-0.02,0.09-0.05,0.12s-0.09,0.05-0.17,0.05h-1.78
		v2.18c0,0.19,0.08,0.35,0.23,0.48c0.15,0.13,0.38,0.19,0.67,0.19c0.22,0,0.46-0.03,0.72-0.1s0.46-0.14,0.6-0.22
		c0.05-0.03,0.09-0.05,0.13-0.05c0.04,0,0.08,0.02,0.11,0.05c0.03,0.03,0.05,0.07,0.05,0.12c0,0.04-0.02,0.08-0.05,0.11
		c-0.08,0.09-0.29,0.18-0.61,0.28c-0.32,0.1-0.63,0.15-0.92,0.15c-0.38,0-0.69-0.09-0.91-0.27s-0.34-0.42-0.34-0.73v-2.18h-0.61
		c-0.08,0-0.13-0.02-0.17-0.05s-0.05-0.07-0.05-0.12c0-0.05,0.02-0.09,0.05-0.12s0.09-0.05,0.17-0.05h0.61v-0.97
		c0-0.08,0.02-0.13,0.05-0.17c0.03-0.03,0.07-0.05,0.12-0.05c0.05,0,0.09,0.02,0.12,0.05c0.03,0.03,0.05,0.09,0.05,0.17V176.9z"/>
	<path d="M56.74,180.28v-0.47c-0.48,0.4-0.99,0.6-1.53,0.6c-0.39,0-0.7-0.1-0.92-0.3s-0.33-0.44-0.33-0.73
		c0-0.32,0.15-0.6,0.44-0.83c0.29-0.24,0.72-0.36,1.28-0.36c0.15,0,0.32,0.01,0.49,0.03s0.37,0.05,0.57,0.09v-0.53
		c0-0.18-0.08-0.34-0.25-0.47s-0.42-0.2-0.75-0.2c-0.25,0-0.61,0.07-1.07,0.22c-0.08,0.03-0.14,0.04-0.16,0.04
		c-0.04,0-0.08-0.02-0.11-0.05s-0.04-0.07-0.04-0.12c0-0.04,0.01-0.08,0.04-0.11c0.04-0.04,0.18-0.09,0.44-0.16
		c0.41-0.11,0.71-0.16,0.92-0.16c0.41,0,0.74,0.1,0.97,0.31c0.23,0.2,0.35,0.44,0.35,0.69v2.17h0.44c0.08,0,0.14,0.01,0.17,0.04
		c0.03,0.03,0.05,0.07,0.05,0.12c0,0.05-0.02,0.09-0.05,0.12s-0.09,0.05-0.17,0.05H56.74z M56.74,178.65
		c-0.15-0.04-0.32-0.08-0.49-0.1c-0.17-0.02-0.35-0.03-0.54-0.03c-0.48,0-0.85,0.1-1.12,0.31c-0.2,0.15-0.3,0.34-0.3,0.55
		c0,0.2,0.08,0.36,0.23,0.5c0.16,0.13,0.38,0.2,0.68,0.2c0.28,0,0.55-0.06,0.79-0.17s0.49-0.29,0.75-0.54V178.65z"/>
	<path d="M59.92,176.9h1.78c0.08,0,0.13,0.02,0.17,0.05s0.05,0.07,0.05,0.12c0,0.05-0.02,0.09-0.05,0.12s-0.09,0.05-0.17,0.05h-1.78
		v2.18c0,0.19,0.08,0.35,0.23,0.48c0.15,0.13,0.38,0.19,0.67,0.19c0.22,0,0.46-0.03,0.72-0.1s0.46-0.14,0.6-0.22
		c0.05-0.03,0.09-0.05,0.13-0.05c0.04,0,0.08,0.02,0.11,0.05c0.03,0.03,0.05,0.07,0.05,0.12c0,0.04-0.02,0.08-0.05,0.11
		c-0.08,0.09-0.29,0.18-0.61,0.28c-0.32,0.1-0.63,0.15-0.92,0.15c-0.38,0-0.69-0.09-0.91-0.27s-0.34-0.42-0.34-0.73v-2.18h-0.61
		c-0.08,0-0.13-0.02-0.17-0.05s-0.05-0.07-0.05-0.12c0-0.05,0.02-0.09,0.05-0.12s0.09-0.05,0.17-0.05h0.61v-0.97
		c0-0.08,0.02-0.13,0.05-0.17c0.03-0.03,0.07-0.05,0.12-0.05c0.05,0,0.09,0.02,0.12,0.05c0.03,0.03,0.05,0.09,0.05,0.17V176.9z"/>
	<path d="M67.17,178.67h-3.34c0.06,0.42,0.24,0.77,0.53,1.03c0.3,0.26,0.67,0.39,1.11,0.39c0.25,0,0.5-0.04,0.77-0.12
		c0.27-0.08,0.49-0.19,0.66-0.32c0.05-0.04,0.09-0.06,0.13-0.06c0.04,0,0.08,0.02,0.11,0.05c0.03,0.03,0.05,0.07,0.05,0.12
		c0,0.04-0.02,0.09-0.06,0.13c-0.12,0.13-0.35,0.25-0.67,0.37s-0.65,0.17-0.98,0.17c-0.56,0-1.03-0.18-1.41-0.55
		c-0.38-0.37-0.56-0.81-0.56-1.34c0-0.48,0.18-0.89,0.53-1.23c0.35-0.34,0.79-0.51,1.31-0.51c0.54,0,0.98,0.17,1.32,0.53
		C67,177.65,67.17,178.11,67.17,178.67z M66.84,178.33c-0.07-0.36-0.24-0.66-0.51-0.88s-0.61-0.34-0.99-0.34s-0.71,0.11-0.99,0.34
		c-0.28,0.22-0.45,0.52-0.52,0.89H66.84z"/>
	<path d="M70.13,179.34h0.14c0.15,0,0.27,0.05,0.38,0.15c0.1,0.1,0.16,0.23,0.16,0.37c0,0.15-0.05,0.28-0.16,0.38
		s-0.23,0.15-0.37,0.15h-0.14c-0.15,0-0.27-0.05-0.38-0.15c-0.1-0.1-0.16-0.23-0.16-0.37c0-0.15,0.05-0.28,0.16-0.38
		S69.98,179.34,70.13,179.34z"/>
	<path d="M76.08,177.11c0-0.08,0.02-0.13,0.05-0.16c0.03-0.03,0.07-0.05,0.12-0.05c0.05,0,0.09,0.02,0.12,0.05
		c0.03,0.03,0.05,0.09,0.05,0.17v0.56c0,0.08-0.02,0.13-0.05,0.17c-0.03,0.03-0.07,0.05-0.12,0.05c-0.04,0-0.08-0.01-0.11-0.04
		c-0.03-0.03-0.05-0.08-0.05-0.14c-0.02-0.16-0.1-0.29-0.24-0.39c-0.21-0.15-0.5-0.22-0.85-0.22c-0.37,0-0.65,0.07-0.86,0.22
		c-0.15,0.11-0.23,0.24-0.23,0.38c0,0.16,0.09,0.29,0.27,0.39c0.12,0.07,0.36,0.13,0.71,0.17c0.46,0.05,0.77,0.11,0.95,0.17
		c0.25,0.09,0.44,0.22,0.56,0.38c0.12,0.16,0.19,0.34,0.19,0.52c0,0.28-0.13,0.53-0.4,0.74c-0.27,0.22-0.66,0.33-1.18,0.33
		s-0.94-0.13-1.27-0.39c0,0.09,0,0.15-0.02,0.17c-0.01,0.03-0.03,0.05-0.06,0.07c-0.03,0.02-0.06,0.03-0.09,0.03
		c-0.05,0-0.09-0.02-0.12-0.05c-0.03-0.03-0.05-0.09-0.05-0.17v-0.68c0-0.08,0.01-0.13,0.04-0.17c0.03-0.03,0.07-0.05,0.12-0.05
		c0.05,0,0.09,0.02,0.12,0.05c0.03,0.03,0.05,0.08,0.05,0.13c0,0.12,0.03,0.22,0.09,0.3c0.09,0.12,0.24,0.23,0.44,0.31
		s0.44,0.12,0.73,0.12c0.43,0,0.75-0.08,0.95-0.24c0.21-0.16,0.31-0.33,0.31-0.5c0-0.2-0.11-0.37-0.32-0.49
		c-0.21-0.12-0.52-0.21-0.93-0.25c-0.41-0.04-0.7-0.1-0.88-0.16c-0.18-0.07-0.32-0.17-0.41-0.3c-0.1-0.14-0.15-0.28-0.15-0.44
		c0-0.28,0.14-0.5,0.41-0.67c0.28-0.17,0.61-0.25,0.99-0.25C75.43,176.78,75.8,176.89,76.08,177.11z"/>
	<path d="M81.17,177.23v-0.11c0-0.08,0.02-0.14,0.05-0.17c0.03-0.03,0.07-0.05,0.12-0.05c0.05,0,0.09,0.02,0.12,0.05
		c0.03,0.03,0.05,0.09,0.05,0.17v0.74c0,0.08-0.02,0.14-0.05,0.17c-0.03,0.03-0.07,0.05-0.12,0.05c-0.04,0-0.08-0.02-0.11-0.04
		c-0.03-0.03-0.05-0.08-0.05-0.15c-0.02-0.19-0.14-0.36-0.37-0.53c-0.23-0.17-0.53-0.25-0.92-0.25c-0.49,0-0.86,0.15-1.11,0.46
		s-0.38,0.65-0.38,1.05c0,0.42,0.14,0.77,0.42,1.05c0.28,0.28,0.64,0.41,1.08,0.41c0.25,0,0.51-0.05,0.78-0.14s0.5-0.25,0.72-0.45
		c0.05-0.05,0.1-0.08,0.14-0.08c0.04,0,0.08,0.01,0.11,0.04c0.03,0.03,0.04,0.07,0.04,0.11c0,0.11-0.13,0.25-0.39,0.43
		c-0.42,0.28-0.9,0.42-1.42,0.42c-0.53,0-0.96-0.17-1.3-0.51c-0.34-0.34-0.51-0.77-0.51-1.28c0-0.53,0.17-0.97,0.52-1.32
		c0.35-0.35,0.79-0.52,1.31-0.52C80.4,176.78,80.83,176.93,81.17,177.23z"/>
	<path d="M86.43,178.6c0,0.5-0.18,0.93-0.54,1.28c-0.36,0.35-0.79,0.53-1.29,0.53c-0.51,0-0.94-0.18-1.3-0.53s-0.54-0.78-0.54-1.28
		c0-0.5,0.18-0.93,0.54-1.28s0.79-0.53,1.3-0.53c0.5,0,0.94,0.18,1.29,0.53C86.25,177.66,86.43,178.09,86.43,178.6z M86.1,178.6
		c0-0.41-0.15-0.76-0.44-1.05s-0.65-0.43-1.06-0.43s-0.77,0.14-1.06,0.44c-0.29,0.29-0.44,0.64-0.44,1.05
		c0,0.41,0.15,0.75,0.44,1.05c0.29,0.29,0.65,0.44,1.06,0.44s0.77-0.15,1.06-0.44C85.95,179.35,86.1,179,86.1,178.6z"/>
	<path d="M88.16,176.9v0.6c0.2-0.24,0.41-0.42,0.63-0.54c0.22-0.12,0.49-0.18,0.79-0.18c0.32,0,0.62,0.08,0.89,0.23
		c0.27,0.15,0.49,0.36,0.63,0.63s0.22,0.55,0.22,0.85c0,0.47-0.17,0.87-0.51,1.21c-0.34,0.33-0.75,0.5-1.24,0.5
		c-0.59,0-1.06-0.24-1.43-0.71v1.98h0.8c0.08,0,0.13,0.01,0.17,0.04c0.03,0.03,0.05,0.07,0.05,0.12c0,0.05-0.02,0.09-0.05,0.12
		s-0.09,0.05-0.17,0.05h-1.57c-0.08,0-0.13-0.02-0.17-0.04c-0.03-0.03-0.05-0.07-0.05-0.12c0-0.05,0.02-0.09,0.05-0.12
		c0.03-0.03,0.09-0.04,0.17-0.04h0.44v-4.23h-0.44c-0.08,0-0.13-0.02-0.17-0.05s-0.05-0.07-0.05-0.12c0-0.05,0.02-0.09,0.05-0.12
		s0.09-0.05,0.17-0.05H88.16z M91.01,178.49c0-0.38-0.14-0.7-0.41-0.97s-0.61-0.4-1.01-0.4c-0.4,0-0.74,0.13-1.01,0.41
		c-0.28,0.27-0.41,0.59-0.41,0.97c0,0.38,0.14,0.7,0.41,0.97c0.28,0.27,0.61,0.41,1.01,0.41c0.39,0,0.73-0.13,1-0.4
		S91.01,178.87,91.01,178.49z"/>
	<path d="M95.97,178.67h-3.34c0.06,0.42,0.24,0.77,0.53,1.03c0.3,0.26,0.67,0.39,1.11,0.39c0.25,0,0.5-0.04,0.77-0.12
		c0.27-0.08,0.49-0.19,0.66-0.32c0.05-0.04,0.09-0.06,0.13-0.06c0.04,0,0.08,0.02,0.11,0.05c0.03,0.03,0.05,0.07,0.05,0.12
		c0,0.04-0.02,0.09-0.06,0.13c-0.12,0.13-0.35,0.25-0.67,0.37s-0.65,0.17-0.98,0.17c-0.56,0-1.03-0.18-1.41-0.55
		c-0.38-0.37-0.56-0.81-0.56-1.34c0-0.48,0.18-0.89,0.53-1.23c0.35-0.34,0.79-0.51,1.31-0.51c0.54,0,0.98,0.17,1.32,0.53
		C95.81,177.65,95.98,178.11,95.97,178.67z M95.64,178.33c-0.07-0.36-0.24-0.66-0.51-0.88s-0.61-0.34-0.99-0.34
		s-0.71,0.11-0.99,0.34c-0.28,0.22-0.45,0.52-0.52,0.89H95.64z"/>
	<path d="M101.18,182.47h-4.36c-0.08,0-0.13-0.02-0.17-0.04c-0.03-0.03-0.05-0.07-0.05-0.12c0-0.05,0.02-0.09,0.05-0.12
		c0.03-0.03,0.09-0.04,0.17-0.04h4.36c0.08,0,0.14,0.01,0.17,0.04c0.03,0.03,0.05,0.07,0.05,0.12c0,0.05-0.02,0.09-0.05,0.12
		C101.32,182.46,101.26,182.47,101.18,182.47z"/>
	<path d="M105.41,175.38v4.57h0.44c0.08,0,0.14,0.01,0.17,0.04c0.03,0.03,0.05,0.07,0.05,0.12c0,0.05-0.02,0.09-0.05,0.12
		s-0.09,0.05-0.17,0.05h-0.77v-0.65c-0.38,0.52-0.86,0.78-1.45,0.78c-0.3,0-0.58-0.08-0.85-0.24c-0.27-0.16-0.49-0.38-0.64-0.67
		c-0.16-0.29-0.24-0.59-0.24-0.9c0-0.31,0.08-0.61,0.24-0.9c0.16-0.29,0.37-0.52,0.64-0.67c0.27-0.16,0.56-0.24,0.86-0.24
		c0.57,0,1.05,0.26,1.45,0.78v-1.85h-0.44c-0.08,0-0.14-0.02-0.17-0.05s-0.05-0.07-0.05-0.12c0-0.05,0.02-0.09,0.05-0.12
		s0.09-0.05,0.17-0.05H105.41z M105.08,178.6c0-0.42-0.14-0.77-0.42-1.05c-0.28-0.29-0.62-0.43-1-0.43c-0.39,0-0.73,0.14-1.01,0.43
		c-0.28,0.29-0.42,0.64-0.42,1.05c0,0.41,0.14,0.76,0.42,1.05c0.28,0.29,0.62,0.43,1.01,0.43c0.39,0,0.72-0.14,1-0.43
		C104.94,179.36,105.08,179.01,105.08,178.6z"/>
	<path d="M108.78,176.9v3.05h1.29c0.08,0,0.14,0.01,0.17,0.04c0.03,0.03,0.05,0.07,0.05,0.12c0,0.05-0.02,0.09-0.05,0.12
		s-0.09,0.05-0.17,0.05h-2.91c-0.08,0-0.13-0.02-0.17-0.05s-0.05-0.07-0.05-0.12c0-0.05,0.02-0.09,0.05-0.12
		c0.03-0.03,0.09-0.04,0.17-0.04h1.29v-2.72h-0.96c-0.08,0-0.13-0.02-0.17-0.05s-0.05-0.07-0.05-0.12c0-0.05,0.02-0.09,0.05-0.12
		s0.09-0.05,0.17-0.05H108.78z M108.76,175.21v0.85h-0.48v-0.85H108.76z"/>
	<path d="M114.77,177.23v-0.11c0-0.08,0.02-0.14,0.05-0.17c0.03-0.03,0.07-0.05,0.12-0.05c0.05,0,0.09,0.02,0.12,0.05
		c0.03,0.03,0.05,0.09,0.05,0.17v0.74c0,0.08-0.02,0.14-0.05,0.17c-0.03,0.03-0.07,0.05-0.12,0.05c-0.04,0-0.08-0.02-0.11-0.04
		c-0.03-0.03-0.05-0.08-0.05-0.15c-0.02-0.19-0.14-0.36-0.37-0.53c-0.23-0.17-0.53-0.25-0.92-0.25c-0.49,0-0.86,0.15-1.11,0.46
		s-0.38,0.65-0.38,1.05c0,0.42,0.14,0.77,0.42,1.05c0.28,0.28,0.64,0.41,1.08,0.41c0.25,0,0.51-0.05,0.78-0.14s0.5-0.25,0.72-0.45
		c0.05-0.05,0.1-0.08,0.14-0.08c0.04,0,0.08,0.01,0.11,0.04c0.03,0.03,0.04,0.07,0.04,0.11c0,0.11-0.13,0.25-0.39,0.43
		c-0.42,0.28-0.9,0.42-1.42,0.42c-0.53,0-0.96-0.17-1.3-0.51c-0.34-0.34-0.51-0.77-0.51-1.28c0-0.53,0.17-0.97,0.52-1.32
		c0.35-0.35,0.79-0.52,1.31-0.52C114.01,176.78,114.43,176.93,114.77,177.23z"/>
	<path d="M117.53,176.9h1.78c0.08,0,0.13,0.02,0.17,0.05s0.05,0.07,0.05,0.12c0,0.05-0.02,0.09-0.05,0.12s-0.09,0.05-0.17,0.05
		h-1.78v2.18c0,0.19,0.08,0.35,0.23,0.48c0.15,0.13,0.38,0.19,0.67,0.19c0.22,0,0.46-0.03,0.72-0.1s0.46-0.14,0.6-0.22
		c0.05-0.03,0.09-0.05,0.13-0.05c0.04,0,0.08,0.02,0.11,0.05c0.03,0.03,0.05,0.07,0.05,0.12c0,0.04-0.02,0.08-0.05,0.11
		c-0.08,0.09-0.29,0.18-0.61,0.28c-0.32,0.1-0.63,0.15-0.92,0.15c-0.38,0-0.69-0.09-0.91-0.27s-0.34-0.42-0.34-0.73v-2.18h-0.61
		c-0.08,0-0.13-0.02-0.17-0.05s-0.05-0.07-0.05-0.12c0-0.05,0.02-0.09,0.05-0.12s0.09-0.05,0.17-0.05h0.61v-0.97
		c0-0.08,0.02-0.13,0.05-0.17c0.03-0.03,0.07-0.05,0.12-0.05c0.05,0,0.09,0.02,0.12,0.05c0.03,0.03,0.05,0.09,0.05,0.17V176.9z"/>
	<path d="M122.97,178.33c0-0.3,0.04-0.62,0.12-0.95s0.23-0.72,0.45-1.16c0.22-0.44,0.38-0.71,0.48-0.8c0.03-0.03,0.07-0.04,0.1-0.04
		c0.05,0,0.09,0.02,0.12,0.05s0.05,0.07,0.05,0.11c0,0.03-0.01,0.05-0.03,0.09c-0.29,0.53-0.49,1-0.61,1.43
		c-0.12,0.43-0.18,0.85-0.18,1.28c0,0.43,0.06,0.86,0.18,1.29c0.12,0.43,0.33,0.9,0.61,1.43c0.02,0.03,0.03,0.06,0.03,0.09
		c0,0.04-0.02,0.08-0.05,0.12c-0.03,0.03-0.07,0.05-0.12,0.05c-0.04,0-0.07-0.01-0.1-0.04c-0.1-0.09-0.25-0.35-0.47-0.78
		s-0.37-0.81-0.45-1.14C123.01,179,122.97,178.67,122.97,178.33z"/>
	<path d="M127.9,178.34c0,0.3-0.04,0.62-0.12,0.95c-0.08,0.33-0.23,0.72-0.45,1.16s-0.38,0.71-0.48,0.79
		c-0.03,0.03-0.07,0.05-0.1,0.05c-0.05,0-0.09-0.02-0.12-0.05c-0.03-0.03-0.05-0.07-0.05-0.12c0-0.03,0.01-0.05,0.03-0.09
		c0.29-0.52,0.49-1,0.61-1.43c0.12-0.43,0.18-0.85,0.18-1.28c0-0.43-0.06-0.86-0.18-1.29c-0.12-0.43-0.33-0.9-0.61-1.43
		c-0.02-0.03-0.03-0.06-0.03-0.09c0-0.04,0.02-0.08,0.05-0.11s0.07-0.05,0.12-0.05c0.04,0,0.07,0.01,0.1,0.04
		c0.1,0.09,0.25,0.35,0.47,0.78s0.37,0.81,0.45,1.14C127.86,177.67,127.9,178,127.9,178.34z"/>
</g>
</svg>
